<svg width="422" height="416" viewBox="0 0 422 416" fill="none" xmlns="http://www.w3.org/2000/svg">
<g filter="url(#filter0_d_835_661)">
<mask id="path-1-inside-1_835_661" fill="white">
<path d="M207.474 179.575C202.479 170.907 195.38 162.908 182.219 159.765C170.941 157.071 160.77 160.399 151.903 167.411C151.903 167.411 154.016 171.701 154.646 174.432C156.338 181.778 152.478 191.435 145.397 195.531L123.262 208.335C112.652 214.472 100.354 209.962 95.621 201.749L62.1756 143.71C60.097 140.102 59.3355 134.726 60.6525 129.257C61.9457 123.886 65.0356 119.274 69.5782 116.643C75.7517 113.074 83.0481 108.857 89.7916 104.959C99.2616 99.4742 108.247 100.78 113.975 104.864C116.747 106.84 120.414 107.014 123.359 105.31L223.562 47.3481C248.028 34.1469 269.429 27.4519 293.965 29.3035C306.77 30.2699 310.883 32.0427 321.815 39.2694C328.867 43.931 332.053 51.08 330.033 52.9775C328.013 54.875 327.138 55.4028 314.539 52.3831C294.665 47.6196 284.503 54.4566 271.742 61.8382C246.222 76.6001 235.718 102.473 246.55 121.271L360.14 318.387C362.7 322.831 362.04 330.434 356.281 333.765L321.326 353.985C316.576 356.733 309.066 355.52 305.786 349.828L207.474 179.575Z"/>
</mask>
<path d="M207.474 179.575C202.479 170.907 195.38 162.908 182.219 159.765C170.941 157.071 160.77 160.399 151.903 167.411C151.903 167.411 154.016 171.701 154.646 174.432C156.338 181.778 152.478 191.435 145.397 195.531L123.262 208.335C112.652 214.472 100.354 209.962 95.621 201.749L62.1756 143.71C60.097 140.102 59.3355 134.726 60.6525 129.257C61.9457 123.886 65.0356 119.274 69.5782 116.643C75.7517 113.074 83.0481 108.857 89.7916 104.959C99.2616 99.4742 108.247 100.78 113.975 104.864C116.747 106.84 120.414 107.014 123.359 105.31L223.562 47.3481C248.028 34.1469 269.429 27.4519 293.965 29.3035C306.77 30.2699 310.883 32.0427 321.815 39.2694C328.867 43.931 332.053 51.08 330.033 52.9775C328.013 54.875 327.138 55.4028 314.539 52.3831C294.665 47.6196 284.503 54.4566 271.742 61.8382C246.222 76.6001 235.718 102.473 246.55 121.271L360.14 318.387C362.7 322.831 362.04 330.434 356.281 333.765L321.326 353.985C316.576 356.733 309.066 355.52 305.786 349.828L207.474 179.575Z" fill="white"/>
<path d="M207.474 179.575L206.608 180.074L206.608 180.075L207.474 179.575ZM182.219 159.765L181.987 160.738L181.987 160.738L182.219 159.765ZM154.646 174.432L153.671 174.657L153.671 174.657L154.646 174.432ZM145.397 195.531L145.898 196.396L145.898 196.396L145.397 195.531ZM123.262 208.335L122.762 207.469L122.762 207.469L123.262 208.335ZM95.621 201.749L96.4874 201.249L96.4874 201.249L95.621 201.749ZM62.1756 143.71L61.3092 144.209L61.3092 144.209L62.1756 143.71ZM60.6525 129.257L61.6247 129.491L61.6247 129.491L60.6525 129.257ZM69.5782 116.643L69.0778 115.777L69.077 115.777L69.5782 116.643ZM89.7916 104.959L90.2921 105.824L90.2928 105.824L89.7916 104.959ZM113.975 104.864L113.395 105.678L113.395 105.678L113.975 104.864ZM123.359 105.31L122.858 104.445L122.858 104.445L123.359 105.31ZM223.562 47.3481L223.087 46.468C223.079 46.4727 223.07 46.4775 223.061 46.4825L223.562 47.3481ZM293.965 29.3035L293.89 30.3007L293.965 29.3035ZM271.742 61.8382L271.241 60.9725L271.742 61.8382ZM246.55 121.271L245.684 121.77L245.684 121.77L246.55 121.271ZM360.14 318.387L361.006 317.888L361.006 317.888L360.14 318.387ZM356.281 333.765L355.781 332.899L355.781 332.899L356.281 333.765ZM321.326 353.985L321.826 354.851L321.826 354.851L321.326 353.985ZM305.786 349.828L306.652 349.328L306.652 349.328L305.786 349.828ZM321.815 39.2694L322.367 38.4352L322.367 38.4352L321.815 39.2694ZM314.539 52.3831L314.772 51.4106L314.772 51.4106L314.539 52.3831ZM151.903 167.411L151.283 166.626C150.913 166.919 150.798 167.43 151.006 167.852L151.903 167.411ZM181.987 160.738C194.791 163.796 201.696 171.551 206.608 180.074L208.341 179.076C203.262 170.263 195.969 162.021 182.452 158.792L181.987 160.738ZM145.898 196.396C149.66 194.22 152.525 190.596 154.231 186.592C155.936 182.591 156.522 178.124 155.62 174.208L153.671 174.657C154.461 178.086 153.963 182.12 152.391 185.808C150.821 189.493 148.215 192.746 144.897 194.665L145.898 196.396ZM123.763 209.2L145.898 196.396L144.897 194.665L122.762 207.469L123.763 209.2ZM94.7545 202.248C99.7547 210.925 112.659 215.623 123.763 209.2L122.762 207.469C112.645 213.321 100.953 208.998 96.4874 201.249L94.7545 202.248ZM61.3092 144.209L94.7545 202.248L96.4874 201.249L63.042 143.21L61.3092 144.209ZM59.6803 129.023C58.3132 134.7 59.0829 140.346 61.3092 144.209L63.042 143.21C61.111 139.859 60.3577 134.753 61.6247 129.491L59.6803 129.023ZM69.077 115.777C64.2591 118.568 61.0263 123.433 59.6803 129.023L61.6247 129.491C62.8651 124.339 65.8122 119.98 70.0795 117.508L69.077 115.777ZM114.556 104.05C108.494 99.7288 99.085 98.4209 89.2905 104.093L90.2928 105.824C99.4381 100.528 107.999 101.832 113.395 105.678L114.556 104.05ZM122.858 104.445C120.252 105.952 117.008 105.798 114.556 104.05L113.395 105.678C116.485 107.881 120.575 108.076 123.86 106.176L122.858 104.445ZM223.061 46.4825L122.858 104.445L123.86 106.176L224.063 48.2137L223.061 46.4825ZM322.367 38.4352C316.897 34.8194 313.052 32.5111 308.937 31.0001C304.813 29.4853 300.475 28.7919 294.04 28.3064L293.89 30.3007C300.26 30.7815 304.382 31.4577 308.248 32.8775C312.124 34.3012 315.801 36.4927 321.264 40.1036L322.367 38.4352ZM272.242 62.7038C278.667 58.9873 284.282 55.507 290.767 53.512C297.203 51.532 304.53 51.0123 314.306 53.3555L314.772 51.4106C304.674 48.9903 296.983 49.5074 290.179 51.6004C283.424 53.6785 277.577 57.3075 271.241 60.9725L272.242 62.7038ZM247.417 120.772C236.977 102.656 246.966 77.3245 272.242 62.7038L271.241 60.9725C245.477 75.8756 234.458 102.29 245.684 121.77L247.417 120.772ZM361.006 317.888L247.417 120.772L245.684 121.77L359.273 318.886L361.006 317.888ZM356.782 334.631C359.952 332.797 361.701 329.792 362.312 326.686C362.919 323.599 362.418 320.338 361.006 317.888L359.273 318.886C360.422 320.88 360.872 323.643 360.349 326.3C359.83 328.939 358.37 331.402 355.781 332.899L356.782 334.631ZM321.826 354.851L356.782 334.631L355.781 332.899L320.825 353.119L321.826 354.851ZM304.919 350.327C308.506 356.551 316.652 357.843 321.826 354.851L320.825 353.119C316.499 355.622 309.626 354.489 306.652 349.328L304.919 350.327ZM294.04 28.3064C269.246 26.4352 247.65 33.2144 223.087 46.468L224.037 48.2281C248.406 35.0793 269.612 28.4685 293.89 30.3007L294.04 28.3064ZM89.2912 104.093C82.5477 107.991 75.2512 112.208 69.0778 115.777L70.0787 117.508C76.2521 113.94 83.5486 109.722 90.2921 105.824L89.2912 104.093ZM321.264 40.1036C324.659 42.3483 327.104 45.1814 328.449 47.6397C329.123 48.8731 329.496 49.9675 329.6 50.8133C329.709 51.6905 329.512 52.0944 329.348 52.2486L330.717 53.7064C331.563 52.9118 331.726 51.7106 331.585 50.568C331.44 49.394 330.954 48.054 330.203 46.6803C328.697 43.9243 326.023 40.8521 322.367 38.4352L321.264 40.1036ZM314.306 53.3555C320.579 54.859 324.065 55.5153 326.249 55.5242C327.374 55.5288 328.226 55.3643 328.963 55.012C329.682 54.6682 330.216 54.1771 330.717 53.7064L329.348 52.2486C328.839 52.7266 328.507 53.0131 328.1 53.2076C327.711 53.3935 327.178 53.528 326.257 53.5242C324.349 53.5165 321.098 52.9268 314.772 51.4106L314.306 53.3555ZM206.608 180.075L304.92 350.328L306.652 349.328L208.34 179.075L206.608 180.075ZM155.62 174.208C155.284 172.748 154.567 170.923 153.957 169.503C153.649 168.784 153.36 168.152 153.149 167.7C153.043 167.474 152.957 167.292 152.896 167.167C152.866 167.104 152.842 167.055 152.826 167.021C152.818 167.005 152.812 166.992 152.807 166.983C152.805 166.979 152.803 166.975 152.802 166.973C152.802 166.972 152.801 166.971 152.801 166.97C152.801 166.97 152.801 166.969 152.8 166.969C152.8 166.969 152.8 166.969 152.8 166.969C152.8 166.969 152.8 166.969 151.903 167.411C151.006 167.852 151.006 167.852 151.006 167.852C151.006 167.852 151.006 167.852 151.006 167.852C151.006 167.852 151.006 167.853 151.006 167.853C151.006 167.853 151.007 167.854 151.007 167.855C151.008 167.856 151.009 167.859 151.011 167.863C151.015 167.87 151.021 167.882 151.028 167.897C151.043 167.928 151.065 167.974 151.094 168.034C151.152 168.153 151.235 168.328 151.337 168.547C151.542 168.985 151.821 169.597 152.12 170.292C152.724 171.7 153.378 173.385 153.671 174.657L155.62 174.208ZM152.523 168.195C161.207 161.328 171.072 158.13 181.987 160.738L182.452 158.792C170.81 156.012 160.332 159.47 151.283 166.626L152.523 168.195Z" fill="#DCE1E5" mask="url(#path-1-inside-1_835_661)"/>
</g>
<defs>
<filter id="filter0_d_835_661" x="0" y="-31" width="421.565" height="446.394" filterUnits="userSpaceOnUse" color-interpolation-filters="sRGB">
<feFlood flood-opacity="0" result="BackgroundImageFix"/>
<feColorMatrix in="SourceAlpha" type="matrix" values="0 0 0 0 0 0 0 0 0 0 0 0 0 0 0 0 0 0 127 0" result="hardAlpha"/>
<feOffset/>
<feGaussianBlur stdDeviation="30"/>
<feComposite in2="hardAlpha" operator="out"/>
<feColorMatrix type="matrix" values="0 0 0 0 0.137101 0 0 0 0 0.165012 0 0 0 0 0.220833 0 0 0 1 0"/>
<feBlend mode="normal" in2="BackgroundImageFix" result="effect1_dropShadow_835_661"/>
<feBlend mode="normal" in="SourceGraphic" in2="effect1_dropShadow_835_661" result="shape"/>
</filter>
</defs>
</svg>
