<svg width="24" height="18" viewBox="0 0 24 18" fill="none" xmlns="http://www.w3.org/2000/svg">
<path d="M20.3165 1.49234C18.7865 0.80234 17.1465 0.29234 15.4315 0.00233982C15.4162 -0.00059227 15.4004 0.00129727 15.3863 0.00774715C15.3721 0.014197 15.3603 0.0248881 15.3525 0.0383398C15.1425 0.40734 14.9085 0.88834 14.7445 1.26834C12.9256 0.996577 11.0764 0.996577 9.2575 1.26834C9.07484 0.8472 8.86885 0.436564 8.6405 0.0383398C8.63276 0.0247225 8.62105 0.0137896 8.60694 0.00699994C8.59282 0.000210313 8.57697 -0.00211317 8.5615 0.000339722C6.8475 0.29034 5.2075 0.80034 3.6765 1.49134C3.66333 1.49686 3.65217 1.50629 3.6445 1.51834C0.532504 6.09334 -0.320496 10.5553 0.0985041 14.9613C0.09967 14.9721 0.10302 14.9826 0.108349 14.992C0.113678 15.0015 0.120876 15.0098 0.129504 15.0163C1.9459 16.3388 3.97184 17.3462 6.1225 17.9963C6.1375 18.001 6.15353 18.0009 6.16852 17.9963C6.1835 17.9917 6.19674 17.9826 6.2065 17.9703C6.6693 17.3514 7.0794 16.6948 7.4325 16.0073C7.43741 15.9979 7.44023 15.9876 7.44079 15.977C7.44134 15.9664 7.43962 15.9558 7.43573 15.946C7.43184 15.9361 7.42588 15.9272 7.41825 15.9199C7.41062 15.9125 7.4015 15.9069 7.3915 15.9033C6.74551 15.6601 6.11959 15.3665 5.5195 15.0253C5.50872 15.0192 5.49964 15.0104 5.49306 14.9999C5.48649 14.9894 5.48263 14.9774 5.48184 14.965C5.48104 14.9526 5.48334 14.9402 5.48852 14.9289C5.4937 14.9176 5.50159 14.9078 5.5115 14.9003C5.6375 14.8073 5.7635 14.7103 5.8835 14.6133C5.89431 14.6046 5.90732 14.5991 5.92109 14.5973C5.93486 14.5955 5.94885 14.5976 5.9615 14.6033C9.8885 16.3673 14.1415 16.3673 18.0225 14.6033C18.0352 14.5973 18.0493 14.5949 18.0633 14.5965C18.0773 14.5981 18.0905 14.6036 18.1015 14.6123C18.2215 14.7103 18.3465 14.8073 18.4735 14.9003C18.4835 14.9077 18.4915 14.9174 18.4969 14.9285C18.5022 14.9397 18.5047 14.9521 18.5041 14.9645C18.5035 14.9768 18.4999 14.9889 18.4935 14.9995C18.4871 15.0101 18.4782 15.019 18.4675 15.0253C17.8695 15.3693 17.2475 15.6603 16.5945 15.9023C16.5845 15.906 16.5753 15.9117 16.5677 15.9192C16.5601 15.9266 16.5541 15.9356 16.5502 15.9456C16.5464 15.9555 16.5446 15.9661 16.5452 15.9768C16.5458 15.9875 16.5486 15.9979 16.5535 16.0073C16.9135 16.6943 17.3255 17.3483 17.7785 17.9693C17.7879 17.9821 17.801 17.9916 17.8161 17.9966C17.8311 18.0016 17.8473 18.0019 17.8625 17.9973C20.0169 17.349 22.0461 16.3411 23.8645 15.0163C23.8734 15.0101 23.8808 15.0021 23.8863 14.9928C23.8919 14.9835 23.8953 14.9731 23.8965 14.9623C24.3965 9.86834 23.0585 5.44234 20.3475 1.52034C20.3409 1.50759 20.3299 1.49766 20.3165 1.49234ZM8.0195 12.2783C6.8375 12.2783 5.8625 11.2093 5.8625 9.89834C5.8625 8.58634 6.8185 7.51834 8.0195 7.51834C9.2295 7.51834 10.1955 8.59534 10.1765 9.89834C10.1765 11.2103 9.2205 12.2783 8.0195 12.2783ZM15.9945 12.2783C14.8115 12.2783 13.8375 11.2093 13.8375 9.89834C13.8375 8.58634 14.7925 7.51834 15.9945 7.51834C17.2045 7.51834 18.1705 8.59534 18.1515 9.89834C18.1515 11.2103 17.2055 12.2783 15.9945 12.2783Z" fill="#BBBBBB"/>
</svg>
