<svg width="22" height="22" viewBox="0 0 22 22" fill="none" xmlns="http://www.w3.org/2000/svg">
<g clip-path="url(#clip0_1_399)">
<path fill-rule="evenodd" clip-rule="evenodd" d="M10.9995 0C4.92201 0 -0.000488281 4.9225 -0.000488281 11C-0.000488281 15.8675 3.14826 19.9787 7.52076 21.4362C8.07076 21.5325 8.27701 21.2025 8.27701 20.9137C8.27701 20.6525 8.26326 19.7862 8.26326 18.865C5.49951 19.3737 4.78451 18.1912 4.56451 17.5725C4.44076 17.2562 3.90451 16.28 3.43701 16.0187C3.05201 15.8125 2.50201 15.3037 3.42326 15.29C4.28951 15.2762 4.90826 16.0875 5.11451 16.4175C6.10451 18.0812 7.68576 17.6137 8.31826 17.325C8.41451 16.61 8.70326 16.1287 9.01951 15.8537C6.57201 15.5787 4.01451 14.63 4.01451 10.4225C4.01451 9.22624 4.44076 8.23625 5.14201 7.46625C5.03201 7.19125 4.64701 6.06375 5.25201 4.55125C5.25201 4.55125 6.17326 4.2625 8.27701 5.67875C9.15701 5.43125 10.092 5.3075 11.027 5.3075C11.962 5.3075 12.897 5.43125 13.777 5.67875C15.8808 4.24875 16.802 4.55125 16.802 4.55125C17.407 6.06375 17.022 7.19125 16.912 7.46625C17.6133 8.23625 18.0395 9.21249 18.0395 10.4225C18.0395 14.6437 15.4683 15.5787 13.0208 15.8537C13.4195 16.1975 13.7633 16.8575 13.7633 17.8887C13.7633 19.36 13.7495 20.5425 13.7495 20.9137C13.7495 21.2025 13.9558 21.5462 14.5058 21.4362C16.6894 20.699 18.5869 19.2955 19.9312 17.4234C21.2755 15.5513 21.9989 13.3048 21.9995 11C21.9995 4.9225 17.077 0 10.9995 0Z" fill="#BBBBBB"/>
</g>
<defs>
<clipPath id="clip0_1_399">
<rect width="22" height="22" fill="white" transform="translate(-0.000488281)"/>
</clipPath>
</defs>
</svg>
