<svg width="45" height="45" viewBox="0 0 45 45" fill="none" xmlns="http://www.w3.org/2000/svg">
<path d="M45 22.5C45 10.0736 34.9264 0 22.5 0C10.0736 0 0 10.0736 0 22.5C0 34.9264 10.0736 45 22.5 45C34.9264 45 45 34.9264 45 22.5Z" fill="white"/>
<mask id="mask0_1_20" style="mask-type:alpha" maskUnits="userSpaceOnUse" x="0" y="0" width="45" height="45">
<path d="M45 22.5C45 10.0736 34.9264 0 22.5 0C10.0736 0 0 10.0736 0 22.5C0 34.9264 10.0736 45 22.5 45C34.9264 45 45 34.9264 45 22.5Z" fill="black"/>
</mask>
<g mask="url(#mask0_1_20)">
<path d="M8.32062 17.8513C6.28061 18.5713 10.7209 25.9019 13.3209 32.1019C10.2041 35.7018 7.42068 44.5813 12.8206 48.3014C18.2207 52.0214 28.9707 49.2014 34.2706 48.3014C35.0207 45.0013 37.1206 37.2013 31.7207 32.1019C34.7207 23.002 39.6707 13.0813 35.4707 13.2013C31.2707 13.3213 25.2794 23.2458 23.0294 30.4959C18.2295 19.9958 10.8707 16.9513 8.32062 17.8513Z" fill="black" stroke="black" stroke-width="2.40748"/>
<path d="M17.8849 38.6246C18.7096 38.6246 19.3781 37.7332 19.3781 36.6336C19.3781 35.534 18.7096 34.6426 17.8849 34.6426C17.0602 34.6426 16.3916 35.534 16.3916 36.6336C16.3916 37.7332 17.0602 38.6246 17.8849 38.6246Z" fill="white"/>
<path d="M27.8385 38.6246C28.6632 38.6246 29.3318 37.7332 29.3318 36.6336C29.3318 35.534 28.6632 34.6426 27.8385 34.6426C27.0138 34.6426 26.3452 35.534 26.3452 36.6336C26.3452 37.7332 27.0138 38.6246 27.8385 38.6246Z" fill="white"/>
<path d="M22.7067 42.275C23.4398 42.275 24.0341 41.755 24.0341 41.1136C24.0341 40.4721 23.4398 39.9521 22.7067 39.9521C21.9737 39.9521 21.3794 40.4721 21.3794 41.1136C21.3794 41.755 21.9737 42.275 22.7067 42.275Z" fill="white"/>
</g>
</svg>
