<svg width="913" height="464" viewBox="0 0 913 464" fill="none" xmlns="http://www.w3.org/2000/svg">
<g clip-path="url(#clip0_279_1091)">
<path d="M486.997 99.4995C486.997 111.926 497.071 122 509.497 122C521.923 122 531.997 111.926 531.997 99.4995C531.997 87.0731 521.923 76.9995 509.497 76.9995C497.071 76.9995 486.997 87.0731 486.997 99.4995Z" fill="white" fill-opacity="0.4"/>
<mask id="mask0_279_1091" style="mask-type:alpha" maskUnits="userSpaceOnUse" x="486" y="76" width="46" height="46">
<path d="M486.997 99.4995C486.997 111.926 497.071 122 509.497 122C521.923 122 531.997 111.926 531.997 99.4995C531.997 87.0731 521.923 76.9995 509.497 76.9995C497.071 76.9995 486.997 87.0731 486.997 99.4995Z" fill="black"/>
</mask>
<g mask="url(#mask0_279_1091)">
<path d="M523.676 104.148C525.716 103.428 521.276 96.0977 518.676 89.8978C521.793 86.2979 524.576 77.4183 519.176 73.6983C513.776 69.9782 503.026 72.7982 497.726 73.6983C496.976 76.9983 494.876 84.7983 500.276 89.8978C497.276 98.9977 492.326 108.918 496.526 108.798C500.726 108.678 506.718 98.7538 508.968 91.5038C513.768 102.004 521.126 105.048 523.676 104.148Z" fill="black" stroke="black" stroke-width="2.40748"/>
<path d="M514.112 83.3747C513.287 83.3747 512.619 84.2662 512.619 85.3658C512.619 86.4654 513.287 87.3568 514.112 87.3568C514.937 87.3568 515.605 86.4654 515.605 85.3658C515.605 84.2662 514.937 83.3747 514.112 83.3747Z" fill="white" fill-opacity="0.4"/>
<path d="M504.159 83.3747C503.334 83.3747 502.665 84.2662 502.665 85.3658C502.665 86.4654 503.334 87.3568 504.159 87.3568C504.983 87.3568 505.652 86.4654 505.652 85.3658C505.652 84.2662 504.983 83.3747 504.159 83.3747Z" fill="white" fill-opacity="0.4"/>
<path d="M509.29 79.7249C508.557 79.7249 507.963 80.2449 507.963 80.8863C507.963 81.5277 508.557 82.0477 509.29 82.0477C510.023 82.0477 510.618 81.5277 510.618 80.8863C510.618 80.2449 510.023 79.7249 509.29 79.7249Z" fill="white" fill-opacity="0.4"/>
</g>
</g>
<g opacity="0.652266" clip-path="url(#clip1_279_1091)">
<path d="M380.447 273.851C369.816 280.286 366.414 294.12 372.849 304.751C379.283 315.382 393.117 318.783 403.748 312.349C414.379 305.915 417.781 292.081 411.346 281.45C404.912 270.819 391.078 267.417 380.447 273.851Z" fill="white" fill-opacity="0.4"/>
<mask id="mask1_279_1091" style="mask-type:alpha" maskUnits="userSpaceOnUse" x="369" y="270" width="46" height="46">
<path d="M380.447 273.851C369.816 280.286 366.414 294.12 372.849 304.751C379.283 315.382 393.117 318.783 403.748 312.349C414.379 305.915 417.781 292.081 411.346 281.45C404.912 270.819 391.078 267.417 380.447 273.851Z" fill="black"/>
</mask>
<g mask="url(#mask1_279_1091)">
<path d="M395.463 307.638C397.135 309.01 401.107 301.416 405.065 295.981C409.758 296.784 418.796 294.567 419.183 288.021C419.569 281.475 411.59 273.739 408.076 269.671C404.864 270.738 397.104 272.98 395.538 280.24C386.199 282.385 375.149 283.288 377.426 286.819C379.704 290.35 391.296 290.336 398.664 288.507C392.166 298.05 393.372 305.922 395.463 307.638Z" fill="black" stroke="black" stroke-width="2.40748"/>
<path d="M408.282 288.699C407.855 287.994 406.746 287.883 405.805 288.453C404.865 289.022 404.448 290.056 404.875 290.761C405.302 291.467 406.411 291.577 407.352 291.008C408.293 290.438 408.709 289.405 408.282 288.699Z" fill="white" fill-opacity="0.4"/>
<path d="M403.129 280.184C402.702 279.478 401.593 279.368 400.652 279.937C399.711 280.507 399.295 281.54 399.722 282.246C400.149 282.951 401.258 283.062 402.198 282.492C403.139 281.923 403.556 280.889 403.129 280.184Z" fill="white" fill-opacity="0.4"/>
<path d="M408.908 282.684C408.529 282.057 407.776 281.818 407.227 282.15C406.679 282.482 406.542 283.26 406.921 283.887C407.301 284.514 408.053 284.753 408.602 284.421C409.151 284.089 409.288 283.311 408.908 282.684Z" fill="white" fill-opacity="0.4"/>
</g>
</g>
<g opacity="0.0869076" clip-path="url(#clip2_279_1091)">
<path d="M253.497 411.901C241.071 411.846 230.953 421.876 230.899 434.302C230.844 446.728 240.873 456.846 253.3 456.901C265.726 456.955 275.844 446.926 275.898 434.5C275.953 422.073 265.924 411.956 253.497 411.901Z" fill="white" fill-opacity="0.4"/>
<mask id="mask2_279_1091" style="mask-type:alpha" maskUnits="userSpaceOnUse" x="230" y="411" width="46" height="46">
<path d="M253.497 411.901C241.071 411.846 230.953 421.876 230.899 434.302C230.844 446.728 240.873 456.846 253.3 456.901C265.726 456.955 275.844 446.926 275.898 434.5C275.953 422.073 265.924 411.956 253.497 411.901Z" fill="black"/>
</mask>
<g mask="url(#mask2_279_1091)">
<path d="M248.688 448.56C249.399 450.603 256.749 446.195 262.96 443.622C266.546 446.755 275.413 449.577 279.157 444.194C282.901 438.81 280.128 428.048 279.251 422.744C275.955 421.979 268.164 419.845 263.041 425.222C253.954 422.182 244.055 417.189 244.157 421.389C244.258 425.59 254.157 431.625 261.397 433.907C250.876 438.66 247.799 446.006 248.688 448.56Z" fill="black" stroke="black" stroke-width="2.40748"/>
<path d="M269.503 439.087C269.507 438.262 268.618 437.59 267.519 437.585C266.419 437.58 265.525 438.245 265.521 439.069C265.518 439.894 266.406 440.567 267.506 440.571C268.605 440.576 269.5 439.912 269.503 439.087Z" fill="white" fill-opacity="0.4"/>
<path d="M269.546 429.133C269.55 428.309 268.661 427.636 267.562 427.631C266.462 427.626 265.568 428.291 265.564 429.116C265.561 429.941 266.449 430.613 267.549 430.618C268.648 430.623 269.543 429.958 269.546 429.133Z" fill="white" fill-opacity="0.4"/>
<path d="M273.174 434.281C273.178 433.548 272.66 432.951 272.019 432.949C271.377 432.946 270.855 433.538 270.852 434.271C270.848 435.004 271.366 435.6 272.007 435.603C272.649 435.606 273.171 435.014 273.174 434.281Z" fill="white" fill-opacity="0.4"/>
</g>
</g>
<g opacity="0.599177" clip-path="url(#clip3_279_1091)">
<path d="M303.798 364.332C316.058 362.307 324.355 350.726 322.329 338.466C320.304 326.206 308.723 317.909 296.463 319.934C284.203 321.959 275.906 333.54 277.931 345.8C279.957 358.061 291.537 366.358 303.798 364.332Z" fill="white" fill-opacity="0.4"/>
<mask id="mask3_279_1091" style="mask-type:alpha" maskUnits="userSpaceOnUse" x="277" y="319" width="46" height="46">
<path d="M303.798 364.332C316.058 362.307 324.355 350.726 322.329 338.466C320.304 326.206 308.723 317.909 296.463 319.934C284.203 321.959 275.906 333.54 277.931 345.8C279.957 358.061 291.537 366.358 303.798 364.332Z" fill="black"/>
</mask>
<g mask="url(#mask3_279_1091)">
<path d="M302.406 327.386C301.363 325.49 294.854 331.066 289.161 334.642C285.101 332.154 275.887 330.855 273.097 336.789C270.306 342.723 274.841 352.869 276.593 357.952C279.971 358.154 288.009 358.954 292.16 352.796C301.627 354.272 312.222 357.539 311.419 353.415C310.616 349.291 299.848 344.997 292.328 343.959C301.905 337.512 303.71 329.755 302.406 327.386Z" fill="black" stroke="black" stroke-width="2.40748"/>
<path d="M283.469 340.208C283.603 341.022 284.592 341.536 285.677 341.357C286.762 341.177 287.532 340.373 287.398 339.559C287.263 338.745 286.275 338.231 285.19 338.41C284.105 338.589 283.334 339.394 283.469 340.208Z" fill="white" fill-opacity="0.4"/>
<path d="M285.092 350.028C285.226 350.842 286.215 351.356 287.3 351.177C288.385 350.998 289.155 350.193 289.021 349.379C288.886 348.566 287.898 348.051 286.813 348.231C285.728 348.41 284.957 349.215 285.092 350.028Z" fill="white" fill-opacity="0.4"/>
<path d="M280.654 345.56C280.774 346.284 281.383 346.785 282.016 346.681C282.649 346.576 283.065 345.905 282.946 345.182C282.826 344.458 282.216 343.957 281.584 344.061C280.951 344.166 280.535 344.837 280.654 345.56Z" fill="white" fill-opacity="0.4"/>
</g>
</g>
<g opacity="0.548039" clip-path="url(#clip4_279_1091)">
<path d="M541.05 243.229C547.902 253.596 561.861 256.445 572.227 249.592C582.593 242.74 585.442 228.782 578.59 218.415C571.738 208.049 557.779 205.2 547.413 212.052C537.046 218.905 534.198 232.863 541.05 243.229Z" fill="white" fill-opacity="0.4"/>
<mask id="mask4_279_1091" style="mask-type:alpha" maskUnits="userSpaceOnUse" x="537" y="208" width="46" height="46">
<path d="M541.05 243.229C547.902 253.596 561.861 256.445 572.227 249.592C582.593 242.74 585.442 228.782 578.59 218.415C571.738 208.049 557.779 205.2 547.413 212.052C537.046 218.905 534.198 232.863 541.05 243.229Z" fill="black"/>
</mask>
<g mask="url(#mask4_279_1091)">
<path d="M574.212 226.882C575.517 225.156 567.77 221.489 562.183 217.751C562.798 213.029 560.223 204.087 553.667 203.961C547.111 203.835 539.698 212.116 535.773 215.789C536.967 218.956 539.516 226.62 546.833 227.897C549.348 237.143 550.689 248.148 554.127 245.732C557.565 243.316 557.09 231.733 554.969 224.444C564.763 230.557 572.581 229.039 574.212 226.882Z" fill="black" stroke="black" stroke-width="2.40748"/>
<path d="M554.778 214.826C554.09 215.281 554.024 216.393 554.63 217.31C555.237 218.228 556.286 218.603 556.974 218.148C557.662 217.693 557.728 216.581 557.122 215.663C556.515 214.746 555.466 214.371 554.778 214.826Z" fill="white" fill-opacity="0.4"/>
<path d="M546.475 220.314C545.787 220.769 545.721 221.882 546.327 222.799C546.934 223.716 547.983 224.091 548.671 223.636C549.359 223.182 549.425 222.069 548.819 221.152C548.212 220.235 547.163 219.86 546.475 220.314Z" fill="white" fill-opacity="0.4"/>
<path d="M548.743 214.44C548.132 214.844 547.923 215.606 548.276 216.141C548.63 216.676 549.412 216.782 550.024 216.378C550.636 215.973 550.845 215.212 550.491 214.677C550.137 214.142 549.355 214.036 548.743 214.44Z" fill="white" fill-opacity="0.4"/>
</g>
</g>
<g opacity="0.680322" clip-path="url(#clip5_279_1091)">
<path d="M364.972 421.651C372.885 431.232 387.067 432.585 396.648 424.672C406.23 416.76 407.583 402.578 399.67 392.996C391.757 383.415 377.575 382.062 367.994 389.975C358.412 397.887 357.06 412.069 364.972 421.651Z" fill="white" fill-opacity="0.4"/>
<mask id="mask5_279_1091" style="mask-type:alpha" maskUnits="userSpaceOnUse" x="359" y="384" width="46" height="46">
<path d="M364.972 421.651C372.885 431.232 387.067 432.585 396.648 424.672C406.23 416.76 407.583 402.578 399.67 392.996C391.757 383.415 377.575 382.062 367.994 389.975C358.412 397.887 357.06 412.069 364.972 421.651Z" fill="black"/>
</mask>
<g mask="url(#mask5_279_1091)">
<path d="M396.214 401.879C397.329 400.025 389.237 397.2 383.285 394.075C383.396 389.315 379.888 380.696 373.355 381.266C366.823 381.836 360.329 390.855 356.816 394.924C358.339 397.946 361.686 405.298 369.097 405.791C372.578 414.718 375.079 425.52 378.241 422.753C381.403 419.986 379.703 408.518 376.821 401.495C387.208 406.535 394.821 404.197 396.214 401.879Z" fill="black" stroke="black" stroke-width="2.40748"/>
<path d="M375.612 391.952C374.976 392.477 375.028 393.59 375.728 394.438C376.428 395.286 377.512 395.547 378.147 395.022C378.783 394.497 378.731 393.384 378.031 392.536C377.331 391.688 376.248 391.426 375.612 391.952Z" fill="white" fill-opacity="0.4"/>
<path d="M367.937 398.29C367.301 398.815 367.353 399.928 368.053 400.776C368.754 401.624 369.837 401.885 370.473 401.36C371.109 400.835 371.056 399.722 370.356 398.874C369.656 398.026 368.573 397.764 367.937 398.29Z" fill="white" fill-opacity="0.4"/>
<path d="M369.57 392.208C369.004 392.674 368.877 393.454 369.286 393.948C369.694 394.443 370.484 394.465 371.049 393.999C371.614 393.532 371.741 392.752 371.333 392.258C370.924 391.763 370.135 391.741 369.57 392.208Z" fill="white" fill-opacity="0.4"/>
</g>
</g>
<g opacity="0.0234962" clip-path="url(#clip6_279_1091)">
<path d="M509.538 454.636C520.837 449.465 525.805 436.113 520.634 424.814C515.463 413.514 502.111 408.547 490.811 413.718C479.512 418.889 474.544 432.241 479.715 443.54C484.887 454.84 498.239 459.807 509.538 454.636Z" fill="white" fill-opacity="0.4"/>
<mask id="mask6_279_1091" style="mask-type:alpha" maskUnits="userSpaceOnUse" x="477" y="411" width="46" height="46">
<path d="M509.538 454.636C520.837 449.465 525.805 436.113 520.634 424.814C515.463 413.514 502.111 408.547 490.811 413.718C479.512 418.889 474.544 432.241 479.715 443.54C484.887 454.84 498.239 459.807 509.538 454.636Z" fill="black"/>
</mask>
<g mask="url(#mask6_279_1091)">
<path d="M498.501 419.349C496.997 417.794 492.179 424.882 487.624 429.826C483.053 428.49 473.821 429.654 472.685 436.113C471.55 442.571 478.588 451.172 481.612 455.617C484.925 454.926 492.891 453.589 495.281 446.557C504.804 445.498 515.885 445.871 514.028 442.101C512.171 438.332 500.653 437.015 493.124 437.986C500.674 429.252 500.38 421.293 498.501 419.349Z" fill="black" stroke="black" stroke-width="2.40748"/>
<path d="M483.592 436.691C483.935 437.441 485.024 437.678 486.024 437.22C487.024 436.762 487.556 435.783 487.213 435.034C486.87 434.284 485.781 434.047 484.781 434.504C483.781 434.962 483.249 435.941 483.592 436.691Z" fill="white" fill-opacity="0.4"/>
<path d="M487.734 445.742C488.077 446.491 489.166 446.728 490.166 446.271C491.166 445.813 491.698 444.834 491.355 444.084C491.012 443.334 489.923 443.098 488.923 443.555C487.923 444.013 487.391 444.992 487.734 445.742Z" fill="white" fill-opacity="0.4"/>
<path d="M482.28 442.594C482.585 443.261 483.305 443.585 483.888 443.318C484.471 443.051 484.697 442.294 484.392 441.627C484.087 440.961 483.367 440.637 482.783 440.904C482.2 441.171 481.974 441.928 482.28 442.594Z" fill="white" fill-opacity="0.4"/>
</g>
</g>
<g opacity="0.01" clip-path="url(#clip7_279_1091)">
<path d="M533.256 111.225C531.068 98.9923 519.378 90.8498 507.146 93.0378C494.913 95.2258 486.771 106.916 488.959 119.148C491.147 131.38 502.837 139.523 515.069 137.335C527.301 135.147 535.444 123.457 533.256 111.225Z" fill="white" fill-opacity="0.4"/>
<mask id="mask7_279_1091" style="mask-type:alpha" maskUnits="userSpaceOnUse" x="488" y="92" width="46" height="46">
<path d="M533.256 111.225C531.068 98.9923 519.378 90.8498 507.146 93.0378C494.913 95.2258 486.771 106.916 488.959 119.148C491.147 131.38 502.837 139.523 515.069 137.335C527.301 135.147 535.444 123.457 533.256 111.225Z" fill="black"/>
</mask>
<g mask="url(#mask7_279_1091)">
<path d="M496.331 113.107C494.449 114.175 500.111 120.609 503.762 126.254C501.328 130.347 500.151 139.578 506.122 142.289C512.093 145 522.178 140.331 527.237 138.512C527.394 135.131 528.088 127.083 521.874 123.014C523.225 113.528 526.351 102.891 522.238 103.749C518.125 104.606 513.974 115.431 513.036 122.964C506.462 113.473 498.682 111.772 496.331 113.107Z" fill="black" stroke="black" stroke-width="2.40748"/>
<path d="M509.403 131.872C510.215 131.726 510.716 130.731 510.522 129.649C510.329 128.566 509.514 127.807 508.702 127.952C507.89 128.097 507.389 129.092 507.583 130.175C507.776 131.257 508.591 132.017 509.403 131.872Z" fill="white" fill-opacity="0.4"/>
<path d="M519.201 130.119C520.013 129.974 520.514 128.979 520.321 127.896C520.127 126.814 519.312 126.054 518.5 126.199C517.688 126.344 517.187 127.34 517.381 128.422C517.574 129.505 518.39 130.264 519.201 130.119Z" fill="white" fill-opacity="0.4"/>
<path d="M514.792 134.616C515.514 134.487 516.007 133.87 515.894 133.239C515.781 132.607 515.105 132.2 514.383 132.329C513.662 132.458 513.168 133.075 513.281 133.706C513.394 134.337 514.071 134.745 514.792 134.616Z" fill="white" fill-opacity="0.4"/>
</g>
</g>
<g opacity="0.318201" clip-path="url(#clip8_279_1091)">
<path d="M670.601 231.066C658.398 228.716 646.602 236.703 644.252 248.905C641.902 261.108 649.889 272.904 662.091 275.254C674.293 277.604 686.09 269.617 688.44 257.415C690.79 245.213 682.803 233.416 670.601 231.066Z" fill="white" fill-opacity="0.4"/>
<mask id="mask8_279_1091" style="mask-type:alpha" maskUnits="userSpaceOnUse" x="643" y="230" width="46" height="46">
<path d="M670.601 231.066C658.398 228.716 646.602 236.703 644.252 248.905C641.902 261.108 649.889 272.904 662.091 275.254C674.293 277.604 686.09 269.617 688.44 257.415C690.79 245.213 682.803 233.416 670.601 231.066Z" fill="black"/>
</mask>
<g mask="url(#mask8_279_1091)">
<path d="M659.1 266.205C659.421 268.344 667.459 265.37 674.039 263.989C676.984 267.731 685.177 272.143 689.851 267.544C694.525 262.945 693.789 251.855 693.908 246.481C690.809 245.12 683.547 241.583 677.518 245.922C669.15 241.255 660.344 234.518 659.668 238.665C658.991 242.812 667.604 250.572 674.298 254.152C663.079 256.88 658.698 263.53 659.1 266.205Z" fill="black" stroke="black" stroke-width="2.40748"/>
<path d="M681.307 260.741C681.463 259.931 680.714 259.106 679.634 258.898C678.554 258.69 677.553 259.178 677.397 259.988C677.241 260.798 677.99 261.623 679.069 261.831C680.149 262.039 681.151 261.551 681.307 260.741Z" fill="white" fill-opacity="0.4"/>
<path d="M683.189 250.967C683.345 250.157 682.596 249.332 681.516 249.124C680.437 248.916 679.435 249.404 679.279 250.214C679.123 251.024 679.872 251.849 680.952 252.057C682.031 252.265 683.033 251.777 683.189 250.967Z" fill="white" fill-opacity="0.4"/>
<path d="M685.803 256.697C685.942 255.977 685.543 255.295 684.913 255.173C684.284 255.052 683.661 255.537 683.522 256.257C683.383 256.977 683.782 257.659 684.411 257.78C685.041 257.902 685.664 257.416 685.803 256.697Z" fill="white" fill-opacity="0.4"/>
</g>
</g>
<g opacity="0.318201" clip-path="url(#clip9_279_1091)">
<path d="M762.903 226.557C750.701 224.207 738.904 232.194 736.554 244.396C734.204 256.598 742.191 268.395 754.393 270.745C766.596 273.095 778.392 265.108 780.742 252.905C783.092 240.703 775.105 228.906 762.903 226.557Z" fill="white" fill-opacity="0.4"/>
<mask id="mask9_279_1091" style="mask-type:alpha" maskUnits="userSpaceOnUse" x="736" y="226" width="46" height="46">
<path d="M762.903 226.557C750.701 224.207 738.904 232.194 736.554 244.396C734.204 256.598 742.191 268.395 754.393 270.745C766.596 273.095 778.392 265.108 780.742 252.905C783.092 240.703 775.105 228.906 762.903 226.557Z" fill="black"/>
</mask>
<g mask="url(#mask9_279_1091)">
<path d="M751.402 261.695C751.723 263.834 759.761 260.861 766.341 259.48C769.286 263.221 777.48 267.633 782.154 263.034C786.828 258.435 786.091 247.346 786.21 241.971C783.111 240.611 775.849 237.074 769.82 241.412C761.452 236.745 752.646 230.009 751.97 234.156C751.293 238.302 759.906 246.062 766.6 249.643C755.382 252.371 751 259.021 751.402 261.695Z" fill="black" stroke="black" stroke-width="2.40748"/>
<path d="M773.609 256.232C773.765 255.422 773.016 254.597 771.936 254.389C770.857 254.181 769.855 254.669 769.699 255.479C769.543 256.289 770.292 257.114 771.372 257.322C772.451 257.53 773.453 257.042 773.609 256.232Z" fill="white" fill-opacity="0.4"/>
<path d="M775.491 246.458C775.647 245.648 774.898 244.823 773.819 244.615C772.739 244.407 771.737 244.895 771.581 245.705C771.425 246.515 772.174 247.34 773.254 247.548C774.334 247.755 775.335 247.268 775.491 246.458Z" fill="white" fill-opacity="0.4"/>
<path d="M778.105 252.187C778.244 251.467 777.846 250.785 777.216 250.664C776.586 250.543 775.963 251.028 775.824 251.748C775.686 252.468 776.084 253.149 776.714 253.271C777.344 253.392 777.967 252.907 778.105 252.187Z" fill="white" fill-opacity="0.4"/>
</g>
</g>
<g opacity="0.318201" clip-path="url(#clip10_279_1091)">
<path d="M499.903 166.557C487.701 164.207 475.904 172.194 473.554 184.396C471.204 196.598 479.191 208.395 491.393 210.745C503.596 213.095 515.392 205.108 517.742 192.905C520.092 180.703 512.105 168.906 499.903 166.557Z" fill="white" fill-opacity="0.4"/>
<mask id="mask10_279_1091" style="mask-type:alpha" maskUnits="userSpaceOnUse" x="473" y="166" width="46" height="46">
<path d="M499.903 166.557C487.701 164.207 475.904 172.194 473.554 184.396C471.204 196.598 479.191 208.395 491.393 210.745C503.596 213.095 515.392 205.108 517.742 192.905C520.092 180.703 512.105 168.906 499.903 166.557Z" fill="black"/>
</mask>
<g mask="url(#mask10_279_1091)">
<path d="M488.402 201.695C488.723 203.834 496.761 200.861 503.341 199.48C506.286 203.221 514.48 207.633 519.154 203.034C523.828 198.435 523.091 187.346 523.21 181.971C520.111 180.611 512.849 177.074 506.82 181.412C498.452 176.745 489.646 170.009 488.97 174.156C488.293 178.302 496.906 186.062 503.6 189.643C492.382 192.371 488 199.021 488.402 201.695Z" fill="black" stroke="black" stroke-width="2.40748"/>
<path d="M510.609 196.232C510.765 195.422 510.016 194.597 508.936 194.389C507.857 194.181 506.855 194.669 506.699 195.479C506.543 196.289 507.292 197.114 508.372 197.322C509.451 197.53 510.453 197.042 510.609 196.232Z" fill="white" fill-opacity="0.4"/>
<path d="M512.491 186.458C512.647 185.648 511.898 184.823 510.819 184.615C509.739 184.407 508.737 184.895 508.581 185.705C508.425 186.515 509.174 187.34 510.254 187.548C511.334 187.755 512.335 187.268 512.491 186.458Z" fill="white" fill-opacity="0.4"/>
<path d="M515.105 192.187C515.244 191.467 514.846 190.785 514.216 190.664C513.586 190.543 512.963 191.028 512.824 191.748C512.686 192.468 513.084 193.149 513.714 193.271C514.344 193.392 514.967 192.907 515.105 192.187Z" fill="white" fill-opacity="0.4"/>
</g>
</g>
<g opacity="0.318201" clip-path="url(#clip11_279_1091)">
<path d="M269.902 54.5566C257.7 52.2068 245.903 60.1937 243.554 72.3959C241.204 84.5981 249.191 96.3949 261.393 98.7447C273.595 101.095 285.392 93.1076 287.742 80.9054C290.092 68.7032 282.105 56.9065 269.902 54.5566Z" fill="white" fill-opacity="0.4"/>
<mask id="mask11_279_1091" style="mask-type:alpha" maskUnits="userSpaceOnUse" x="243" y="54" width="46" height="46">
<path d="M269.902 54.5566C257.7 52.2068 245.903 60.1937 243.554 72.3959C241.204 84.5981 249.191 96.3949 261.393 98.7447C273.595 101.095 285.392 93.1076 287.742 80.9054C290.092 68.7032 282.105 56.9065 269.902 54.5566Z" fill="black"/>
</mask>
<g mask="url(#mask11_279_1091)">
<path d="M258.401 89.6951C258.722 91.8345 266.76 88.8605 273.34 87.4798C276.286 91.2211 284.479 95.6335 289.153 91.0344C293.827 86.4353 293.09 75.346 293.209 69.9714C290.11 68.6108 282.848 65.0738 276.819 69.412C268.451 64.7453 259.645 58.0087 258.969 62.1556C258.293 66.3024 266.905 74.0624 273.599 77.6428C262.381 80.3706 257.999 87.0209 258.401 89.6951Z" fill="black" stroke="black" stroke-width="2.40748"/>
<path d="M280.609 84.2317C280.765 83.4219 280.016 82.5968 278.936 82.3889C277.856 82.181 276.854 82.6689 276.698 83.4787C276.542 84.2886 277.291 85.1136 278.371 85.3216C279.451 85.5295 280.453 85.0416 280.609 84.2317Z" fill="white" fill-opacity="0.4"/>
<path d="M282.49 74.4577C282.646 73.6479 281.897 72.8228 280.818 72.6149C279.738 72.4069 278.736 72.8949 278.58 73.7047C278.424 74.5145 279.173 75.3396 280.253 75.5475C281.333 75.7555 282.334 75.2675 282.49 74.4577Z" fill="white" fill-opacity="0.4"/>
<path d="M285.104 80.187C285.243 79.4672 284.845 78.7853 284.215 78.664C283.585 78.5427 282.962 79.0279 282.823 79.7477C282.685 80.4676 283.083 81.1495 283.713 81.2708C284.343 81.3921 284.966 80.9068 285.104 80.187Z" fill="white" fill-opacity="0.4"/>
</g>
</g>
<g opacity="0.227307" clip-path="url(#clip12_279_1091)">
<path d="M721.308 419.824C724.991 407.956 718.355 395.35 706.486 391.667C694.618 387.985 682.012 394.621 678.329 406.489C674.647 418.357 681.283 430.963 693.151 434.646C705.019 438.328 717.626 431.692 721.308 419.824Z" fill="white" fill-opacity="0.4"/>
<mask id="mask12_279_1091" style="mask-type:alpha" maskUnits="userSpaceOnUse" x="677" y="390" width="46" height="46">
<path d="M721.308 419.824C724.991 407.956 718.355 395.35 706.486 391.667C694.618 387.985 682.012 394.621 678.329 406.489C674.647 418.357 681.283 430.963 693.151 434.646C705.019 438.328 717.626 431.692 721.308 419.824Z" fill="black"/>
</mask>
<g mask="url(#mask12_279_1091)">
<path d="M687.654 404.515C685.492 404.598 687.561 412.915 688.206 419.607C684.163 422.121 678.873 429.777 682.928 434.93C686.983 440.084 698.086 440.576 703.415 441.287C705.109 438.357 709.426 431.53 705.78 425.059C711.342 417.257 719.009 409.249 714.962 408.119C710.915 406.989 702.252 414.692 697.955 420.95C696.482 409.499 690.356 404.411 687.654 404.515Z" fill="black" stroke="black" stroke-width="2.40748"/>
<path d="M690.632 427.189C691.42 427.434 692.323 426.78 692.649 425.73C692.974 424.68 692.6 423.631 691.812 423.386C691.025 423.142 690.122 423.795 689.796 424.845C689.47 425.895 689.845 426.945 690.632 427.189Z" fill="white" fill-opacity="0.4"/>
<path d="M700.139 430.139C700.926 430.383 701.829 429.73 702.155 428.68C702.481 427.63 702.106 426.58 701.319 426.336C700.531 426.091 699.628 426.745 699.303 427.795C698.977 428.845 699.351 429.895 700.139 430.139Z" fill="white" fill-opacity="0.4"/>
<path d="M694.156 432.104C694.856 432.321 695.578 432.001 695.768 431.388C695.958 430.776 695.545 430.103 694.844 429.886C694.144 429.668 693.423 429.989 693.232 430.602C693.042 431.214 693.456 431.887 694.156 432.104Z" fill="white" fill-opacity="0.4"/>
</g>
</g>
<g opacity="0.80169" clip-path="url(#clip13_279_1091)">
<path d="M876.141 222.966C864.504 227.325 858.604 240.293 862.964 251.929C867.323 263.566 880.29 269.466 891.927 265.107C903.563 260.747 909.463 247.78 905.104 236.143C900.745 224.507 887.777 218.607 876.141 222.966Z" fill="white" fill-opacity="0.4"/>
<mask id="mask13_279_1091" style="mask-type:alpha" maskUnits="userSpaceOnUse" x="861" y="221" width="46" height="46">
<path d="M876.141 222.966C864.504 227.325 858.604 240.293 862.964 251.929C867.323 263.566 880.29 269.466 891.927 265.107C903.563 260.747 909.463 247.78 905.104 236.143C900.745 224.507 887.777 218.607 876.141 222.966Z" fill="black"/>
</mask>
<g mask="url(#mask13_279_1091)">
<path d="M884.654 258.945C886.044 260.603 891.351 253.874 896.245 249.264C900.71 250.92 910.002 250.411 911.591 244.05C913.18 237.688 906.768 228.61 904.066 223.963C900.713 224.418 892.672 225.188 889.791 232.033C880.217 232.416 869.19 231.261 870.776 235.152C872.361 239.043 883.757 241.172 891.336 240.736C883.187 248.914 882.917 256.873 884.654 258.945Z" fill="black" stroke="black" stroke-width="2.40748"/>
<path d="M900.753 242.702C900.463 241.929 899.394 241.616 898.364 242.002C897.334 242.387 896.734 243.326 897.024 244.099C897.313 244.871 898.382 245.184 899.412 244.798C900.442 244.413 901.042 243.474 900.753 242.702Z" fill="white" fill-opacity="0.4"/>
<path d="M897.261 233.381C896.972 232.608 895.902 232.295 894.872 232.681C893.843 233.066 893.243 234.005 893.532 234.778C893.821 235.55 894.89 235.863 895.92 235.477C896.95 235.092 897.55 234.153 897.261 233.381Z" fill="white" fill-opacity="0.4"/>
<path d="M902.479 236.906C902.222 236.219 901.527 235.845 900.926 236.07C900.325 236.295 900.047 237.034 900.304 237.721C900.561 238.407 901.256 238.781 901.857 238.556C902.458 238.331 902.736 237.592 902.479 236.906Z" fill="white" fill-opacity="0.4"/>
</g>
</g>
<g opacity="0.261441" clip-path="url(#clip14_279_1091)">
<path d="M811.517 309.818C803.519 300.307 789.326 299.079 779.815 307.077C770.304 315.074 769.077 329.267 777.074 338.778C785.071 348.289 799.264 349.517 808.775 341.519C818.286 333.522 819.514 319.329 811.517 309.818Z" fill="white" fill-opacity="0.4"/>
<mask id="mask14_279_1091" style="mask-type:alpha" maskUnits="userSpaceOnUse" x="771" y="301" width="46" height="46">
<path d="M811.517 309.818C803.519 300.307 789.326 299.079 779.815 307.077C770.304 315.074 769.077 329.267 777.074 338.778C785.071 348.289 799.264 349.517 808.775 341.519C818.286 333.522 819.514 319.329 811.517 309.818Z" fill="black"/>
</mask>
<g mask="url(#mask14_279_1091)">
<path d="M780.451 329.865C779.353 331.729 787.469 334.482 793.449 337.554C793.38 342.316 796.964 350.903 803.491 350.275C810.019 349.647 816.432 340.571 819.909 336.471C818.359 333.462 814.947 326.141 807.532 325.713C803.972 316.817 801.376 306.038 798.239 308.833C795.101 311.628 796.902 323.08 799.846 330.077C789.415 325.13 781.823 327.535 780.451 329.865Z" fill="black" stroke="black" stroke-width="2.40748"/>
<path d="M801.14 339.61C801.771 339.079 801.709 337.966 801.002 337.125C800.294 336.283 799.209 336.031 798.578 336.562C797.946 337.093 798.008 338.205 798.716 339.047C799.424 339.889 800.509 340.141 801.14 339.61Z" fill="white" fill-opacity="0.4"/>
<path d="M808.758 333.204C809.39 332.673 809.328 331.561 808.62 330.719C807.912 329.878 806.827 329.626 806.196 330.156C805.564 330.687 805.626 331.8 806.334 332.641C807.042 333.483 808.127 333.735 808.758 333.204Z" fill="white" fill-opacity="0.4"/>
<path d="M807.18 339.3C807.741 338.829 807.861 338.048 807.448 337.557C807.035 337.066 806.246 337.051 805.685 337.522C805.124 337.994 805.004 338.775 805.416 339.266C805.829 339.757 806.619 339.772 807.18 339.3Z" fill="white" fill-opacity="0.4"/>
</g>
</g>
<g opacity="0.466481" clip-path="url(#clip15_279_1091)">
<path d="M765.251 186.212C776.156 180.254 780.167 166.584 774.209 155.679C768.252 144.774 754.582 140.764 743.676 146.721C732.771 152.679 728.761 166.349 734.718 177.254C740.676 188.159 754.346 192.17 765.251 186.212Z" fill="white" fill-opacity="0.4"/>
<mask id="mask15_279_1091" style="mask-type:alpha" maskUnits="userSpaceOnUse" x="731" y="143" width="46" height="46">
<path d="M765.251 186.212C776.156 180.254 780.167 166.584 774.209 155.679C768.252 144.774 754.582 140.764 743.676 146.721C732.771 152.679 728.761 166.349 734.718 177.254C740.676 188.159 754.346 192.17 765.251 186.212Z" fill="black"/>
</mask>
<g mask="url(#mask15_279_1091)">
<path d="M751.745 151.794C750.136 150.349 745.831 157.761 741.637 163.015C736.983 162.005 727.856 163.82 727.181 170.342C726.505 176.865 734.134 184.947 737.465 189.166C740.72 188.242 748.572 186.346 750.458 179.162C759.883 177.432 770.962 177.019 768.843 173.391C766.724 169.763 755.142 169.263 747.701 170.765C754.614 161.518 753.758 153.601 751.745 151.794Z" fill="black" stroke="black" stroke-width="2.40748"/>
<path d="M738.101 170.147C738.496 170.871 739.599 171.03 740.564 170.503C741.529 169.976 741.991 168.962 741.595 168.238C741.2 167.514 740.097 167.355 739.132 167.882C738.167 168.41 737.705 169.424 738.101 170.147Z" fill="white" fill-opacity="0.4"/>
<path d="M742.873 178.882C743.268 179.606 744.371 179.765 745.336 179.238C746.301 178.711 746.763 177.697 746.367 176.973C745.972 176.249 744.869 176.09 743.904 176.617C742.939 177.144 742.477 178.159 742.873 178.882Z" fill="white" fill-opacity="0.4"/>
<path d="M737.209 176.129C737.561 176.772 738.302 177.044 738.865 176.737C739.428 176.429 739.599 175.659 739.248 175.015C738.896 174.372 738.155 174.1 737.592 174.407C737.029 174.715 736.858 175.486 737.209 176.129Z" fill="white" fill-opacity="0.4"/>
</g>
</g>
<g opacity="0.752027" clip-path="url(#clip16_279_1091)">
<path d="M650.77 79.9804C642.36 70.8322 628.126 70.2336 618.978 78.6435C609.83 87.0533 609.231 101.287 617.641 110.435C626.051 119.583 640.284 120.182 649.433 111.772C658.581 103.362 659.179 89.1287 650.77 79.9804Z" fill="white" fill-opacity="0.4"/>
<mask id="mask16_279_1091" style="mask-type:alpha" maskUnits="userSpaceOnUse" x="611" y="72" width="46" height="46">
<path d="M650.77 79.9804C642.36 70.8322 628.126 70.2336 618.978 78.6435C609.83 87.0533 609.231 101.287 617.641 110.435C626.051 119.583 640.284 120.182 649.433 111.772C658.581 103.362 659.179 89.1287 650.77 79.9804Z" fill="black"/>
</mask>
<g mask="url(#mask16_279_1091)">
<path d="M620.62 101.382C619.606 103.292 627.836 105.684 633.946 108.489C634.087 113.248 638.048 121.669 644.541 120.753C651.034 119.837 657.039 110.486 660.332 106.236C658.651 103.299 654.918 96.1359 647.492 96.0362C643.542 87.3066 640.472 76.653 637.461 79.5838C634.45 82.5146 636.756 93.8757 640.006 100.736C629.366 96.2543 621.888 98.9932 620.62 101.382Z" fill="black" stroke="black" stroke-width="2.40748"/>
<path d="M641.72 110.202C642.327 109.644 642.216 108.535 641.472 107.726C640.728 106.916 639.632 106.712 639.025 107.271C638.418 107.829 638.529 108.937 639.273 109.747C640.017 110.556 641.113 110.76 641.72 110.202Z" fill="white" fill-opacity="0.4"/>
<path d="M649.048 103.466C649.655 102.908 649.544 101.799 648.8 100.989C648.056 100.18 646.96 99.9761 646.353 100.534C645.746 101.092 645.857 102.201 646.601 103.011C647.346 103.82 648.441 104.024 649.048 103.466Z" fill="white" fill-opacity="0.4"/>
<path d="M647.74 109.626C648.28 109.13 648.365 108.345 647.931 107.873C647.497 107.4 646.708 107.42 646.168 107.916C645.628 108.412 645.543 109.197 645.977 109.669C646.411 110.141 647.2 110.122 647.74 109.626Z" fill="white" fill-opacity="0.4"/>
</g>
</g>
<g opacity="0.710632" clip-path="url(#clip17_279_1091)">
<path d="M496.621 305.705C485.368 300.434 471.973 305.284 466.702 316.537C461.431 327.79 466.281 341.185 477.534 346.456C488.788 351.727 502.183 346.877 507.454 335.624C512.724 324.371 507.875 310.975 496.621 305.705Z" fill="white" fill-opacity="0.4"/>
<mask id="mask17_279_1091" style="mask-type:alpha" maskUnits="userSpaceOnUse" x="464" y="303" width="46" height="46">
<path d="M496.621 305.705C485.368 300.434 471.973 305.284 466.702 316.537C461.431 327.79 466.281 341.185 477.534 346.456C488.788 351.727 502.183 346.877 507.454 335.624C512.724 324.371 507.875 310.975 496.621 305.705Z" fill="black"/>
</mask>
<g mask="url(#mask17_279_1091)">
<path d="M476.854 336.949C476.64 339.102 485.162 338.19 491.88 338.465C493.818 342.815 500.678 349.102 506.338 345.79C511.997 342.477 514.003 331.546 515.436 326.365C512.765 324.286 506.592 319.076 499.684 321.803C492.716 315.226 485.831 306.536 484.158 310.39C482.486 314.244 488.932 323.88 494.543 328.992C482.999 328.885 477.12 334.258 476.854 336.949Z" fill="black" stroke="black" stroke-width="2.40748"/>
<path d="M499.722 337.099C500.072 336.352 499.549 335.369 498.553 334.902C497.557 334.436 496.466 334.663 496.116 335.41C495.766 336.157 496.29 337.14 497.286 337.607C498.282 338.073 499.373 337.846 499.722 337.099Z" fill="white" fill-opacity="0.4"/>
<path d="M503.945 328.085C504.294 327.338 503.771 326.355 502.775 325.888C501.779 325.422 500.688 325.649 500.338 326.396C499.989 327.143 500.512 328.127 501.508 328.593C502.504 329.059 503.595 328.832 503.945 328.085Z" fill="white" fill-opacity="0.4"/>
<path d="M505.073 334.281C505.384 333.617 505.165 332.858 504.585 332.586C504.004 332.314 503.281 332.631 502.97 333.295C502.659 333.959 502.878 334.718 503.459 334.99C504.039 335.262 504.762 334.944 505.073 334.281Z" fill="white" fill-opacity="0.4"/>
</g>
</g>
<g opacity="0.710632" clip-path="url(#clip18_279_1091)">
<path d="M570.621 13.7045C559.368 8.43385 545.973 13.2837 540.702 24.5369C535.431 35.7902 540.281 49.1855 551.534 54.4561C562.788 59.7268 576.183 54.877 581.454 43.6237C586.724 32.3705 581.875 18.9752 570.621 13.7045Z" fill="white" fill-opacity="0.4"/>
<mask id="mask18_279_1091" style="mask-type:alpha" maskUnits="userSpaceOnUse" x="538" y="11" width="46" height="46">
<path d="M570.621 13.7045C559.368 8.43385 545.973 13.2837 540.702 24.5369C535.431 35.7902 540.281 49.1855 551.534 54.4561C562.788 59.7268 576.183 54.877 581.454 43.6237C586.724 32.3705 581.875 18.9752 570.621 13.7045Z" fill="black"/>
</mask>
<g mask="url(#mask18_279_1091)">
<path d="M550.854 44.9492C550.64 47.102 559.162 46.1902 565.88 46.4654C567.818 50.8148 574.678 57.1018 580.338 53.7895C585.997 50.4771 588.003 39.5459 589.436 34.3645C586.765 32.2856 580.592 27.0755 573.684 29.8027C566.716 23.2262 559.831 14.5356 558.158 18.3901C556.486 22.2444 562.932 31.8796 568.543 36.9923C556.999 36.8854 551.12 42.2582 550.854 44.9492Z" fill="black" stroke="black" stroke-width="2.40748"/>
<path d="M573.722 45.099C574.072 44.3522 573.549 43.3686 572.553 42.9022C571.557 42.4358 570.466 42.6632 570.116 43.41C569.766 44.1569 570.29 45.1404 571.286 45.6068C572.282 46.0732 573.373 45.8459 573.722 45.099Z" fill="white" fill-opacity="0.4"/>
<path d="M577.945 36.0851C578.294 35.3383 577.771 34.3547 576.775 33.8883C575.779 33.4219 574.688 33.6493 574.338 34.3961C573.989 35.143 574.512 36.1265 575.508 36.5929C576.504 37.0593 577.595 36.832 577.945 36.0851Z" fill="white" fill-opacity="0.4"/>
<path d="M579.073 42.2805C579.384 41.6167 579.165 40.8579 578.585 40.5859C578.004 40.3138 577.281 40.6314 576.97 41.2953C576.659 41.9591 576.878 42.7179 577.459 42.9899C578.039 43.262 578.762 42.9444 579.073 42.2805Z" fill="white" fill-opacity="0.4"/>
</g>
</g>
<g opacity="0.135762" clip-path="url(#clip19_279_1091)">
<path d="M630.363 346.398C625.042 335.169 611.625 330.378 600.396 335.699C589.166 341.02 584.376 354.437 589.697 365.666C595.017 376.896 608.434 381.686 619.664 376.365C630.893 371.045 635.684 357.628 630.363 346.398Z" fill="white" fill-opacity="0.4"/>
<mask id="mask19_279_1091" style="mask-type:alpha" maskUnits="userSpaceOnUse" x="587" y="333" width="46" height="46">
<path d="M630.363 346.398C625.042 335.169 611.625 330.378 600.396 335.699C589.166 341.02 584.376 354.437 589.697 365.666C595.017 376.896 608.434 381.686 619.664 376.365C630.893 371.045 635.684 357.628 630.363 346.398Z" fill="black"/>
</mask>
<g mask="url(#mask19_279_1091)">
<path d="M595.225 357.903C593.69 359.427 600.842 364.15 605.846 368.64C604.571 373.227 605.857 382.444 612.33 383.493C618.803 384.543 627.31 377.392 631.714 374.309C630.979 371.005 629.537 363.057 622.474 360.761C621.288 351.253 621.514 340.168 617.77 342.075C614.026 343.982 612.861 355.516 613.932 363.031C605.098 355.598 597.145 355.997 595.225 357.903Z" fill="black" stroke="black" stroke-width="2.40748"/>
<path d="M612.763 372.58C613.509 372.227 613.731 371.135 613.26 370.142C612.79 369.148 611.804 368.629 611.058 368.982C610.313 369.335 610.091 370.427 610.562 371.42C611.032 372.414 612.018 372.933 612.763 372.58Z" fill="white" fill-opacity="0.4"/>
<path d="M621.759 368.318C622.504 367.965 622.726 366.873 622.256 365.88C621.785 364.886 620.799 364.367 620.054 364.72C619.308 365.073 619.086 366.165 619.557 367.158C620.027 368.152 621.013 368.671 621.759 368.318Z" fill="white" fill-opacity="0.4"/>
<path d="M618.684 373.814C619.346 373.5 619.661 372.776 619.386 372.196C619.111 371.616 618.352 371.401 617.689 371.715C617.027 372.029 616.712 372.753 616.987 373.333C617.262 373.912 618.021 374.128 618.684 373.814Z" fill="white" fill-opacity="0.4"/>
</g>
</g>
<path d="M721.214 35.6317C725.106 47.4328 737.828 53.8441 749.629 49.9518C761.43 46.0595 767.842 33.3375 763.949 21.5364C760.057 9.73534 747.335 3.32401 735.534 7.21632C723.733 11.1086 717.322 23.8306 721.214 35.6317Z" fill="white" fill-opacity="0.4"/>
<mask id="mask20_279_1091" style="mask-type:alpha" maskUnits="userSpaceOnUse" x="720" y="6" width="46" height="46">
<path d="M721.214 35.6317C725.106 47.4328 737.828 53.8441 749.629 49.9518C761.43 46.0595 767.842 33.3375 763.949 21.5364C760.057 9.73534 747.335 3.32401 735.534 7.21632C723.733 11.1086 717.322 23.8306 721.214 35.6317Z" fill="black"/>
</mask>
<g mask="url(#mask20_279_1091)">
<path d="M757.504 28.5576C759.215 27.2348 752.702 21.6639 748.291 16.5904C750.124 12.1953 749.986 2.89076 743.692 1.04934C737.399 -0.79204 728.073 5.25323 723.322 7.76811C723.643 11.1371 724.092 19.2023 730.817 22.3537C730.819 31.9354 729.225 42.9073 733.176 41.4778C737.127 40.0483 739.708 28.7465 739.574 21.1565C747.422 29.6247 755.364 30.211 757.504 28.5576Z" fill="black" stroke="black" stroke-width="2.40748"/>
<path d="M741.914 11.8252C741.13 12.0835 740.775 13.1395 741.119 14.1838C741.464 15.2281 742.378 15.8652 743.161 15.6069C743.944 15.3486 744.3 14.2926 743.955 13.2483C743.611 12.204 742.697 11.5669 741.914 11.8252Z" fill="white" fill-opacity="0.4"/>
<path d="M732.461 14.943C731.678 15.2013 731.322 16.2573 731.667 17.3016C732.011 18.3459 732.925 18.983 733.708 18.7247C734.492 18.4664 734.847 17.4104 734.503 16.3661C734.158 15.3218 733.244 14.6847 732.461 14.943Z" fill="white" fill-opacity="0.4"/>
<path d="M736.191 9.86933C735.495 10.099 735.093 10.7789 735.294 11.3881C735.495 11.9972 736.222 12.3049 736.919 12.0753C737.615 11.8457 738.016 11.1657 737.815 10.5566C737.614 9.94739 736.887 9.63971 736.191 9.86933Z" fill="white" fill-opacity="0.4"/>
</g>
<path d="M369.544 11.7874C358.801 5.54262 345.03 9.18933 338.785 19.9326C332.54 30.6759 336.187 44.4474 346.93 50.6923C357.673 56.9371 371.445 53.2904 377.69 42.5471C383.934 31.8038 380.288 18.0323 369.544 11.7874Z" fill="white" fill-opacity="0.4"/>
<mask id="mask21_279_1091" style="mask-type:alpha" maskUnits="userSpaceOnUse" x="335" y="8" width="46" height="46">
<path d="M369.544 11.7874C358.801 5.54262 345.03 9.18933 338.785 19.9326C332.54 30.6759 336.187 44.4474 346.93 50.6923C357.673 56.9371 371.445 53.2904 377.69 42.5471C383.934 31.8038 380.288 18.0323 369.544 11.7874Z" fill="black"/>
</mask>
<g mask="url(#mask21_279_1091)">
<path d="M347.092 41.1624C346.689 43.288 355.259 43.1331 361.925 44.001C363.471 48.5047 369.749 55.3735 375.679 52.5745C381.609 49.7753 384.574 39.0643 386.459 34.0298C383.983 31.7229 378.295 25.9876 371.172 28.0934C364.812 20.9266 358.723 11.6615 356.716 15.353C354.709 19.0443 360.279 29.2117 365.416 34.8004C353.926 33.6734 347.596 38.5055 347.092 41.1624Z" fill="black" stroke="black" stroke-width="2.40748"/>
<path d="M369.858 43.3333C370.273 42.6203 369.838 41.5943 368.887 41.0417C367.937 40.4891 366.83 40.6192 366.415 41.3322C366.001 42.0452 366.436 43.0711 367.386 43.6238C368.337 44.1764 369.444 44.0463 369.858 43.3333Z" fill="white" fill-opacity="0.4"/>
<path d="M374.86 34.7279C375.275 34.0148 374.84 32.9889 373.889 32.4363C372.939 31.8837 371.832 32.0137 371.417 32.7267C371.003 33.4397 371.438 34.4657 372.388 35.0183C373.339 35.5709 374.446 35.4409 374.86 34.7279Z" fill="white" fill-opacity="0.4"/>
<path d="M375.437 40.9988C375.805 40.365 375.655 39.5899 375.1 39.2676C374.545 38.9452 373.797 39.1977 373.429 39.8314C373.06 40.4652 373.211 41.2403 373.766 41.5627C374.32 41.885 375.069 41.6326 375.437 40.9988Z" fill="white" fill-opacity="0.4"/>
</g>
<g opacity="0.459535" clip-path="url(#clip20_279_1091)">
<path d="M277.544 211.787C266.801 205.543 253.03 209.189 246.785 219.933C240.54 230.676 244.187 244.447 254.93 250.692C265.673 256.937 279.445 253.29 285.69 242.547C291.934 231.804 288.288 218.032 277.544 211.787Z" fill="white" fill-opacity="0.4"/>
<mask id="mask22_279_1091" style="mask-type:alpha" maskUnits="userSpaceOnUse" x="243" y="208" width="46" height="46">
<path d="M277.544 211.787C266.801 205.543 253.03 209.189 246.785 219.933C240.54 230.676 244.187 244.447 254.93 250.692C265.673 256.937 279.445 253.29 285.69 242.547C291.934 231.804 288.288 218.032 277.544 211.787Z" fill="black"/>
</mask>
<g mask="url(#mask22_279_1091)">
<path d="M255.092 241.162C254.689 243.288 263.259 243.133 269.925 244.001C271.471 248.505 277.749 255.374 283.679 252.574C289.609 249.775 292.574 239.064 294.459 234.03C291.983 231.723 286.295 225.988 279.172 228.093C272.812 220.927 266.723 211.662 264.716 215.353C262.709 219.044 268.279 229.212 273.416 234.8C261.926 233.673 255.596 238.506 255.092 241.162Z" fill="black" stroke="black" stroke-width="2.40748"/>
<path d="M277.858 243.333C278.273 242.62 277.838 241.594 276.887 241.042C275.937 240.489 274.83 240.619 274.415 241.332C274.001 242.045 274.436 243.071 275.386 243.624C276.337 244.176 277.444 244.046 277.858 243.333Z" fill="white" fill-opacity="0.4"/>
<path d="M282.86 234.728C283.275 234.015 282.84 232.989 281.889 232.436C280.939 231.884 279.832 232.014 279.417 232.727C279.003 233.44 279.438 234.466 280.388 235.018C281.339 235.571 282.446 235.441 282.86 234.728Z" fill="white" fill-opacity="0.4"/>
<path d="M283.437 240.999C283.805 240.365 283.655 239.59 283.1 239.268C282.545 238.945 281.797 239.198 281.429 239.831C281.06 240.465 281.211 241.24 281.766 241.563C282.32 241.885 283.069 241.633 283.437 240.999Z" fill="white" fill-opacity="0.4"/>
</g>
</g>
<g opacity="0.624781" clip-path="url(#clip21_279_1091)">
<path d="M436.864 204.989C438.726 192.703 430.275 181.234 417.989 179.372C405.703 177.51 394.234 185.96 392.372 198.246C390.51 210.532 398.96 222.001 411.246 223.863C423.532 225.726 435.001 217.275 436.864 204.989Z" fill="white" fill-opacity="0.4"/>
<mask id="mask23_279_1091" style="mask-type:alpha" maskUnits="userSpaceOnUse" x="392" y="179" width="46" height="46">
<path d="M436.864 204.989C438.726 192.703 430.275 181.234 417.989 179.372C405.703 177.51 394.234 185.96 392.372 198.246C390.51 210.532 398.96 222.001 411.246 223.863C423.532 225.726 435.001 217.275 436.864 204.989Z" fill="black"/>
</mask>
<g mask="url(#mask23_279_1091)">
<path d="M401.295 194.896C399.17 195.303 402.462 203.216 404.103 209.735C400.482 212.828 396.4 221.19 401.181 225.677C405.963 230.164 417.014 228.987 422.389 228.891C423.625 225.741 426.87 218.344 422.296 212.493C426.625 203.945 433.006 194.878 428.835 194.367C424.665 193.857 417.254 202.771 413.943 209.602C410.771 198.502 403.951 194.389 401.295 194.896Z" fill="black" stroke="black" stroke-width="2.40748"/>
<path d="M407.638 216.869C408.454 216.992 409.248 216.211 409.413 215.124C409.578 214.037 409.051 213.055 408.235 212.931C407.42 212.808 406.625 213.589 406.46 214.676C406.296 215.763 406.823 216.745 407.638 216.869Z" fill="white" fill-opacity="0.4"/>
<path d="M417.479 218.36C418.295 218.484 419.089 217.702 419.254 216.615C419.419 215.528 418.891 214.547 418.076 214.423C417.261 214.299 416.466 215.081 416.301 216.168C416.136 217.255 416.664 218.237 417.479 218.36Z" fill="white" fill-opacity="0.4"/>
<path d="M411.859 221.2C412.584 221.31 413.249 220.885 413.345 220.25C413.441 219.616 412.932 219.013 412.207 218.903C411.482 218.793 410.817 219.218 410.72 219.853C410.624 220.487 411.134 221.09 411.859 221.2Z" fill="white" fill-opacity="0.4"/>
</g>
</g>
<g opacity="0.624781" clip-path="url(#clip22_279_1091)">
<path d="M385.625 136.754C387.487 124.468 379.037 112.998 366.751 111.136C354.465 109.274 342.995 117.724 341.133 130.01C339.271 142.297 347.722 153.766 360.008 155.628C372.294 157.49 383.763 149.04 385.625 136.754Z" fill="white" fill-opacity="0.4"/>
<mask id="mask24_279_1091" style="mask-type:alpha" maskUnits="userSpaceOnUse" x="340" y="110" width="46" height="46">
<path d="M385.625 136.754C387.487 124.468 379.037 112.998 366.751 111.136C354.465 109.274 342.995 117.724 341.133 130.01C339.271 142.297 347.722 153.766 360.008 155.628C372.294 157.49 383.763 149.04 385.625 136.754Z" fill="black"/>
</mask>
<g mask="url(#mask24_279_1091)">
<path d="M350.057 126.661C347.932 127.067 351.224 134.98 352.865 141.5C349.244 144.592 345.162 152.954 349.943 157.442C354.725 161.929 365.776 160.751 371.151 160.656C372.387 157.505 375.632 150.108 371.057 144.257C375.387 135.709 381.768 126.642 377.597 126.132C373.427 125.621 366.016 134.536 362.705 141.367C359.532 130.266 352.713 126.153 350.057 126.661Z" fill="black" stroke="black" stroke-width="2.40748"/>
<path d="M356.4 148.633C357.216 148.757 358.01 147.975 358.175 146.888C358.34 145.801 357.812 144.82 356.997 144.696C356.182 144.572 355.387 145.354 355.222 146.441C355.057 147.528 355.585 148.509 356.4 148.633Z" fill="white" fill-opacity="0.4"/>
<path d="M366.241 150.125C367.056 150.248 367.851 149.467 368.016 148.38C368.181 147.293 367.653 146.311 366.838 146.188C366.022 146.064 365.228 146.845 365.063 147.932C364.898 149.019 365.426 150.001 366.241 150.125Z" fill="white" fill-opacity="0.4"/>
<path d="M360.621 152.964C361.345 153.074 362.011 152.649 362.107 152.015C362.203 151.381 361.693 150.778 360.969 150.668C360.244 150.558 359.578 150.983 359.482 151.617C359.386 152.251 359.896 152.855 360.621 152.964Z" fill="white" fill-opacity="0.4"/>
</g>
</g>
<path d="M149.647 280.371C139.016 286.806 135.614 300.64 142.049 311.27C148.483 321.901 162.317 325.303 172.948 318.869C183.579 312.435 186.981 298.6 180.547 287.97C174.112 277.339 160.278 273.937 149.647 280.371Z" fill="white" fill-opacity="0.4"/>
<mask id="mask25_279_1091" style="mask-type:alpha" maskUnits="userSpaceOnUse" x="138" y="277" width="46" height="46">
<path d="M149.647 280.371C139.016 286.806 135.614 300.64 142.049 311.27C148.483 321.901 162.317 325.303 172.948 318.869C183.579 312.435 186.981 298.6 180.547 287.97C174.112 277.339 160.278 273.937 149.647 280.371Z" fill="black"/>
</mask>
<g mask="url(#mask25_279_1091)">
<path d="M164.663 314.158C166.335 315.53 170.307 307.936 174.265 302.501C178.959 303.303 187.996 301.087 188.383 294.541C188.769 287.995 180.79 280.258 177.276 276.19C174.065 277.257 166.304 279.5 164.738 286.76C155.399 288.905 144.349 289.807 146.626 293.338C148.904 296.869 160.497 296.856 167.864 295.027C161.367 304.57 162.572 312.442 164.663 314.158Z" fill="black" stroke="black" stroke-width="2.40748"/>
<path d="M177.482 295.219C177.055 294.513 175.946 294.403 175.006 294.972C174.065 295.542 173.648 296.575 174.075 297.281C174.502 297.986 175.611 298.097 176.552 297.527C177.493 296.958 177.909 295.924 177.482 295.219Z" fill="white" fill-opacity="0.4"/>
<path d="M172.329 286.704C171.902 285.998 170.793 285.888 169.852 286.457C168.912 287.026 168.495 288.06 168.922 288.765C169.349 289.471 170.458 289.581 171.399 289.012C172.339 288.443 172.756 287.409 172.329 286.704Z" fill="white" fill-opacity="0.4"/>
<path d="M178.109 289.204C177.729 288.577 176.976 288.338 176.428 288.67C175.879 289.002 175.742 289.78 176.121 290.407C176.501 291.034 177.253 291.273 177.802 290.941C178.351 290.609 178.488 289.831 178.109 289.204Z" fill="white" fill-opacity="0.4"/>
</g>
<g opacity="0.0869076" clip-path="url(#clip23_279_1091)">
<path d="M22.6976 418.421C10.2713 418.366 0.153521 428.395 0.0989 440.822C0.044279 453.248 10.0735 463.366 22.4998 463.42C34.9261 463.475 45.0438 453.446 45.0985 441.02C45.1531 428.593 35.1239 418.475 22.6976 418.421Z" fill="white" fill-opacity="0.4"/>
<mask id="mask26_279_1091" style="mask-type:alpha" maskUnits="userSpaceOnUse" x="0" y="418" width="46" height="46">
<path d="M22.6976 418.421C10.2713 418.366 0.153521 428.395 0.0989 440.822C0.044279 453.248 10.0735 463.366 22.4998 463.42C34.9261 463.475 45.0438 453.446 45.0985 441.02C45.1531 428.593 35.1239 418.475 22.6976 418.421Z" fill="black"/>
</mask>
<g mask="url(#mask26_279_1091)">
<path d="M17.8877 455.079C18.5987 457.123 25.9488 452.715 32.1601 450.142C35.7463 453.274 44.6136 456.097 48.3573 450.713C52.101 445.33 49.3283 434.567 48.4516 429.264C45.1548 428.499 37.3642 426.365 32.241 431.742C23.1544 428.702 13.2555 423.709 13.3571 427.909C13.4586 432.11 23.3568 438.145 30.5968 440.426C20.0758 445.18 16.999 452.525 17.8877 455.079Z" fill="black" stroke="black" stroke-width="2.40748"/>
<path d="M38.7034 445.607C38.7071 444.782 37.8186 444.109 36.719 444.105C35.6194 444.1 34.725 444.764 34.7214 445.589C34.7178 446.414 35.6063 447.086 36.7059 447.091C37.8055 447.096 38.6998 446.431 38.7034 445.607Z" fill="white" fill-opacity="0.4"/>
<path d="M38.7464 435.653C38.75 434.828 37.8616 434.156 36.762 434.151C35.6623 434.146 34.768 434.811 34.7644 435.636C34.7608 436.46 35.6492 437.133 36.7488 437.138C37.8484 437.142 38.7428 436.478 38.7464 435.653Z" fill="white" fill-opacity="0.4"/>
<path d="M42.3746 440.801C42.3778 440.068 41.8604 439.471 41.219 439.468C40.5776 439.466 40.055 440.058 40.0517 440.791C40.0485 441.524 40.5659 442.12 41.2073 442.123C41.8488 442.126 42.3714 441.534 42.3746 440.801Z" fill="white" fill-opacity="0.4"/>
</g>
</g>
<g opacity="0.599177" clip-path="url(#clip24_279_1091)">
<path d="M72.9978 370.852C85.258 368.827 93.555 357.246 91.5296 344.986C89.5042 332.725 77.9234 324.428 65.6632 326.454C53.4029 328.479 45.106 340.06 47.1313 352.32C49.1567 364.58 60.7375 372.877 72.9978 370.852Z" fill="white" fill-opacity="0.4"/>
<mask id="mask27_279_1091" style="mask-type:alpha" maskUnits="userSpaceOnUse" x="46" y="326" width="46" height="46">
<path d="M72.9978 370.852C85.258 368.827 93.555 357.246 91.5296 344.986C89.5042 332.725 77.9234 324.428 65.6632 326.454C53.4029 328.479 45.106 340.06 47.1313 352.32C49.1567 364.58 60.7375 372.877 72.9978 370.852Z" fill="black"/>
</mask>
<g mask="url(#mask27_279_1091)">
<path d="M71.6063 333.905C70.5634 332.01 64.0545 337.586 58.3613 341.162C54.3015 338.673 45.087 337.374 42.2968 343.308C39.5067 349.243 44.0411 359.389 45.793 364.472C49.1712 364.674 57.2091 365.474 61.3602 359.315C70.8274 360.792 81.4223 364.059 80.6193 359.935C79.8164 355.81 69.048 351.517 61.5282 350.479C71.1054 344.031 72.9098 336.275 71.6063 333.905Z" fill="black" stroke="black" stroke-width="2.40748"/>
<path d="M52.6691 346.728C52.8035 347.541 53.792 348.056 54.8769 347.876C55.9618 347.697 56.7323 346.892 56.5979 346.079C56.4635 345.265 55.475 344.751 54.3901 344.93C53.3052 345.109 52.5346 345.914 52.6691 346.728Z" fill="white" fill-opacity="0.4"/>
<path d="M54.2921 356.548C54.4265 357.362 55.415 357.876 56.4999 357.697C57.5848 357.518 58.3553 356.713 58.2209 355.899C58.0865 355.086 57.098 354.571 56.0131 354.75C54.9282 354.93 54.1577 355.735 54.2921 356.548Z" fill="white" fill-opacity="0.4"/>
<path d="M49.8542 352.08C49.9737 352.803 50.5836 353.305 51.2165 353.2C51.8493 353.096 52.2655 352.425 52.146 351.701C52.0265 350.978 51.4166 350.477 50.7838 350.581C50.1509 350.686 49.7347 351.357 49.8542 352.08Z" fill="white" fill-opacity="0.4"/>
</g>
</g>
<path d="M134.172 428.17C142.085 437.752 156.267 439.105 165.848 431.192C175.43 423.279 176.783 409.098 168.87 399.516C160.957 389.935 146.776 388.582 137.194 396.494C127.613 404.407 126.26 418.589 134.172 428.17Z" fill="white" fill-opacity="0.4"/>
<mask id="mask28_279_1091" style="mask-type:alpha" maskUnits="userSpaceOnUse" x="129" y="391" width="46" height="46">
<path d="M134.172 428.17C142.085 437.752 156.267 439.105 165.848 431.192C175.43 423.279 176.783 409.098 168.87 399.516C160.957 389.935 146.776 388.582 137.194 396.494C127.613 404.407 126.26 418.589 134.172 428.17Z" fill="black"/>
</mask>
<g mask="url(#mask28_279_1091)">
<path d="M165.415 408.399C166.529 406.545 158.437 403.72 152.485 400.595C152.596 395.834 149.088 387.215 142.555 387.785C136.023 388.356 129.529 397.375 126.016 401.444C127.539 404.466 130.887 411.818 138.297 412.311C141.779 421.238 144.279 432.039 147.441 429.272C150.603 426.506 148.903 415.038 146.022 408.015C156.409 413.055 164.021 410.717 165.415 408.399Z" fill="black" stroke="black" stroke-width="2.40748"/>
<path d="M144.812 398.471C144.176 398.997 144.228 400.11 144.928 400.957C145.629 401.805 146.712 402.067 147.348 401.542C147.984 401.017 147.931 399.904 147.231 399.056C146.531 398.208 145.448 397.946 144.812 398.471Z" fill="white" fill-opacity="0.4"/>
<path d="M137.137 404.81C136.501 405.335 136.553 406.448 137.254 407.296C137.954 408.143 139.037 408.405 139.673 407.88C140.309 407.355 140.257 406.242 139.556 405.394C138.856 404.546 137.773 404.284 137.137 404.81Z" fill="white" fill-opacity="0.4"/>
<path d="M138.77 398.727C138.205 399.194 138.078 399.974 138.486 400.468C138.894 400.963 139.684 400.985 140.249 400.519C140.814 400.052 140.941 399.272 140.533 398.778C140.124 398.283 139.335 398.261 138.77 398.727Z" fill="white" fill-opacity="0.4"/>
</g>
<g opacity="0.318201" clip-path="url(#clip25_279_1091)">
<path d="M39.1026 61.0764C26.9004 58.7266 15.1036 66.7135 12.7538 78.9157C10.4039 91.1179 18.3909 102.915 30.5931 105.265C42.7953 107.614 54.5921 99.6274 56.9419 87.4252C59.2917 75.223 51.3048 63.4262 39.1026 61.0764Z" fill="white" fill-opacity="0.4"/>
<mask id="mask29_279_1091" style="mask-type:alpha" maskUnits="userSpaceOnUse" x="12" y="60" width="46" height="46">
<path d="M39.1026 61.0764C26.9004 58.7266 15.1036 66.7135 12.7538 78.9157C10.4039 91.1179 18.3909 102.915 30.5931 105.265C42.7953 107.614 54.5921 99.6274 56.9419 87.4252C59.2917 75.223 51.3048 63.4262 39.1026 61.0764Z" fill="black"/>
</mask>
<g mask="url(#mask29_279_1091)">
<path d="M27.6011 96.2149C27.9224 98.3543 35.9604 95.3803 42.5401 93.9996C45.4857 97.7409 53.6787 102.153 58.3528 97.5542C63.0268 92.955 62.2906 81.8657 62.409 76.4912C59.3103 75.1306 52.0481 71.5936 46.0195 75.9318C37.6511 71.2651 28.8455 64.5284 28.1691 68.6754C27.4927 72.8222 36.1052 80.5822 42.799 84.1626C31.5808 86.8903 27.1996 93.5407 27.6011 96.2149Z" fill="black" stroke="black" stroke-width="2.40748"/>
<path d="M49.8088 90.7515C49.9648 89.9417 49.2159 89.1166 48.1361 88.9087C47.0563 88.7008 46.0545 89.1887 45.8986 89.9985C45.7426 90.8083 46.4915 91.6334 47.5713 91.8413C48.6511 92.0493 49.6529 91.5614 49.8088 90.7515Z" fill="white" fill-opacity="0.4"/>
<path d="M51.6906 80.9775C51.8466 80.1676 51.0977 79.3426 50.0179 79.1346C48.9381 78.9267 47.9364 79.4146 47.7804 80.2245C47.6245 81.0343 48.3734 81.8594 49.4532 82.0673C50.5329 82.2752 51.5347 81.7873 51.6906 80.9775Z" fill="white" fill-opacity="0.4"/>
<path d="M54.3044 86.7068C54.443 85.9869 54.0448 85.305 53.4149 85.1837C52.7851 85.0624 52.1621 85.5477 52.0235 86.2675C51.8848 86.9874 52.2831 87.6693 52.9129 87.7906C53.5428 87.9118 54.1658 87.4266 54.3044 86.7068Z" fill="white" fill-opacity="0.4"/>
</g>
</g>
<path d="M138.745 18.3072C128.001 12.0624 114.23 15.7091 107.985 26.4524C101.74 37.1956 105.387 50.9672 116.13 57.212C126.873 63.4569 140.645 59.8101 146.89 49.0669C153.135 38.3236 149.488 24.552 138.745 18.3072Z" fill="white" fill-opacity="0.4"/>
<mask id="mask30_279_1091" style="mask-type:alpha" maskUnits="userSpaceOnUse" x="104" y="15" width="46" height="46">
<path d="M138.745 18.3072C128.001 12.0624 114.23 15.7091 107.985 26.4524C101.74 37.1956 105.387 50.9672 116.13 57.212C126.873 63.4569 140.645 59.8101 146.89 49.0669C153.135 38.3236 149.488 24.552 138.745 18.3072Z" fill="black"/>
</mask>
<g mask="url(#mask30_279_1091)">
<path d="M116.292 47.6822C115.89 49.8077 124.459 49.6529 131.126 50.5207C132.672 55.0245 138.95 61.8933 144.879 59.0943C150.809 56.2951 153.774 45.584 155.659 40.5496C153.183 38.2427 147.495 32.5074 140.372 34.6132C134.013 27.4464 127.923 18.1813 125.916 21.8728C123.909 25.5641 129.479 35.7315 134.616 41.3202C123.126 40.1932 116.796 45.0253 116.292 47.6822Z" fill="black" stroke="black" stroke-width="2.40748"/>
<path d="M139.058 49.8531C139.473 49.1401 139.038 48.1141 138.087 47.5615C137.137 47.0089 136.03 47.1389 135.616 47.8519C135.201 48.5649 135.636 49.5909 136.587 50.1435C137.537 50.6961 138.644 50.5661 139.058 49.8531Z" fill="white" fill-opacity="0.4"/>
<path d="M144.06 41.2476C144.475 40.5346 144.04 39.5086 143.089 38.956C142.139 38.4034 141.032 38.5335 140.618 39.2465C140.203 39.9595 140.638 40.9855 141.589 41.5381C142.539 42.0907 143.646 41.9606 144.06 41.2476Z" fill="white" fill-opacity="0.4"/>
<path d="M144.637 47.5186C145.006 46.8848 144.855 46.1097 144.3 45.7873C143.746 45.465 142.997 45.7174 142.629 46.3512C142.261 46.985 142.411 47.7601 142.966 48.0825C143.521 48.4048 144.269 48.1523 144.637 47.5186Z" fill="white" fill-opacity="0.4"/>
</g>
<g opacity="0.459535" clip-path="url(#clip26_279_1091)">
<path d="M46.7446 218.307C36.0014 212.062 22.2298 215.709 15.985 226.452C9.74016 237.196 13.3869 250.967 24.1301 257.212C34.8734 263.457 48.645 259.81 54.8898 249.067C61.1346 238.324 57.4879 224.552 46.7446 218.307Z" fill="white" fill-opacity="0.4"/>
<mask id="mask31_279_1091" style="mask-type:alpha" maskUnits="userSpaceOnUse" x="12" y="215" width="46" height="46">
<path d="M46.7446 218.307C36.0014 212.062 22.2298 215.709 15.985 226.452C9.74016 237.196 13.3869 250.967 24.1301 257.212C34.8734 263.457 48.645 259.81 54.8898 249.067C61.1346 238.324 57.4879 224.552 46.7446 218.307Z" fill="black"/>
</mask>
<g mask="url(#mask31_279_1091)">
<path d="M24.2924 247.682C23.8896 249.808 32.4588 249.653 39.1256 250.521C40.6716 255.024 46.9496 261.893 52.8795 259.094C58.8094 256.295 61.7737 245.584 63.6591 240.55C61.1829 238.243 55.4948 232.507 48.3723 234.613C42.0126 227.446 35.9232 218.181 33.9163 221.873C31.9094 225.564 37.4788 235.731 42.6161 241.32C31.1261 240.193 24.7958 245.025 24.2924 247.682Z" fill="black" stroke="black" stroke-width="2.40748"/>
<path d="M47.0584 249.853C47.4728 249.14 47.0381 248.114 46.0875 247.562C45.1368 247.009 44.0301 247.139 43.6157 247.852C43.2012 248.565 43.6359 249.591 44.5866 250.144C45.5373 250.696 46.6439 250.566 47.0584 249.853Z" fill="white" fill-opacity="0.4"/>
<path d="M52.0603 241.248C52.4748 240.535 52.0401 239.509 51.0894 238.956C50.1387 238.403 49.0321 238.533 48.6176 239.246C48.2032 239.959 48.6379 240.985 49.5885 241.538C50.5392 242.091 51.6459 241.961 52.0603 241.248Z" fill="white" fill-opacity="0.4"/>
<path d="M52.6372 247.519C53.0056 246.885 52.8547 246.11 52.3001 245.787C51.7456 245.465 50.9974 245.717 50.629 246.351C50.2606 246.985 50.4115 247.76 50.966 248.082C51.5206 248.405 52.2688 248.152 52.6372 247.519Z" fill="white" fill-opacity="0.4"/>
</g>
</g>
<path d="M206.064 211.509C207.926 199.223 199.475 187.753 187.189 185.891C174.903 184.029 163.434 192.48 161.572 204.766C159.71 217.052 168.16 228.521 180.446 230.383C192.732 232.245 204.202 223.795 206.064 211.509Z" fill="white" fill-opacity="0.4"/>
<mask id="mask32_279_1091" style="mask-type:alpha" maskUnits="userSpaceOnUse" x="161" y="185" width="46" height="46">
<path d="M206.064 211.509C207.926 199.223 199.475 187.753 187.189 185.891C174.903 184.029 163.434 192.48 161.572 204.766C159.71 217.052 168.16 228.521 180.446 230.383C192.732 232.245 204.202 223.795 206.064 211.509Z" fill="black"/>
</mask>
<g mask="url(#mask32_279_1091)">
<path d="M170.495 201.416C168.37 201.822 171.662 209.736 173.304 216.255C169.683 219.347 165.6 227.71 170.382 232.197C175.163 236.684 186.214 235.507 191.589 235.411C192.825 232.261 196.071 224.863 191.496 219.012C195.825 210.465 202.206 201.398 198.036 200.887C193.865 200.376 186.454 209.291 183.143 216.122C179.971 205.021 173.151 200.909 170.495 201.416Z" fill="black" stroke="black" stroke-width="2.40748"/>
<path d="M176.839 223.388C177.654 223.512 178.449 222.731 178.613 221.643C178.778 220.556 178.251 219.575 177.435 219.451C176.62 219.328 175.825 220.109 175.661 221.196C175.496 222.283 176.023 223.265 176.839 223.388Z" fill="white" fill-opacity="0.4"/>
</g>
<g opacity="0.624781" clip-path="url(#clip27_279_1091)">
<path d="M154.825 143.273C156.687 130.987 148.237 119.518 135.951 117.656C123.665 115.794 112.196 124.244 110.334 136.53C108.471 148.816 116.922 160.286 129.208 162.148C141.494 164.01 152.963 155.559 154.825 143.273Z" fill="white" fill-opacity="0.4"/>
<mask id="mask33_279_1091" style="mask-type:alpha" maskUnits="userSpaceOnUse" x="110" y="117" width="46" height="46">
<path d="M154.825 143.273C156.687 130.987 148.237 119.518 135.951 117.656C123.665 115.794 112.196 124.244 110.334 136.53C108.471 148.816 116.922 160.286 129.208 162.148C141.494 164.01 152.963 155.559 154.825 143.273Z" fill="black"/>
</mask>
<g mask="url(#mask33_279_1091)">
<path d="M119.257 133.181C117.132 133.587 120.424 141.5 122.065 148.02C118.444 151.112 114.362 159.474 119.143 163.961C123.925 168.449 134.976 167.271 140.351 167.176C141.587 164.025 144.832 156.628 140.257 150.777C144.587 142.229 150.968 133.162 146.797 132.652C142.627 132.141 135.216 141.056 131.905 147.887C128.733 136.786 121.913 132.673 119.257 133.181Z" fill="black" stroke="black" stroke-width="2.40748"/>
<path d="M125.6 155.153C126.416 155.276 127.21 154.495 127.375 153.408C127.54 152.321 127.013 151.339 126.197 151.216C125.382 151.092 124.587 151.873 124.422 152.96C124.258 154.048 124.785 155.029 125.6 155.153Z" fill="white" fill-opacity="0.4"/>
<path d="M135.441 156.644C136.257 156.768 137.051 155.987 137.216 154.9C137.381 153.812 136.853 152.831 136.038 152.707C135.223 152.584 134.428 153.365 134.263 154.452C134.098 155.539 134.626 156.521 135.441 156.644Z" fill="white" fill-opacity="0.4"/>
<path d="M129.821 159.484C130.546 159.594 131.211 159.169 131.307 158.535C131.403 157.901 130.894 157.297 130.169 157.188C129.444 157.078 128.779 157.503 128.682 158.137C128.586 158.771 129.096 159.374 129.821 159.484Z" fill="white" fill-opacity="0.4"/>
</g>
</g>
<g opacity="0.0969027" clip-path="url(#clip28_279_1091)">
<path d="M872.446 423.864C883.244 417.715 887.012 403.976 880.862 393.178C874.712 382.38 860.973 378.612 850.175 384.762C839.377 390.911 835.609 404.65 841.759 415.448C847.909 426.246 861.648 430.014 872.446 423.864Z" fill="white" fill-opacity="0.4"/>
<mask id="mask34_279_1091" style="mask-type:alpha" maskUnits="userSpaceOnUse" x="838" y="381" width="46" height="46">
<path d="M872.446 423.864C883.244 417.715 887.012 403.976 880.862 393.178C874.712 382.38 860.973 378.612 850.175 384.762C839.377 390.911 835.609 404.65 841.759 415.448C847.909 426.246 861.648 430.014 872.446 423.864Z" fill="black"/>
</mask>
<g mask="url(#mask34_279_1091)">
<path d="M858.333 389.691C856.697 388.275 852.525 395.761 848.424 401.089C843.754 400.162 834.66 402.138 834.1 408.671C833.54 415.204 841.311 423.15 844.716 427.31C847.954 426.329 855.771 424.293 857.53 417.077C866.922 415.181 877.993 414.572 875.81 410.982C873.627 407.392 862.038 407.097 854.624 408.73C861.373 399.363 860.377 391.462 858.333 389.691Z" fill="black" stroke="black" stroke-width="2.40748"/>
<path d="M845.015 408.283C845.423 408.999 846.528 409.139 847.484 408.595C848.439 408.051 848.883 407.029 848.475 406.312C848.067 405.595 846.961 405.456 846.006 406C845.05 406.544 844.606 407.566 845.015 408.283Z" fill="white" fill-opacity="0.4"/>
<path d="M849.941 416.932C850.349 417.649 851.455 417.788 852.41 417.244C853.366 416.7 853.809 415.678 853.401 414.961C852.993 414.245 851.888 414.105 850.932 414.649C849.976 415.193 849.533 416.215 849.941 416.932Z" fill="white" fill-opacity="0.4"/>
<path d="M844.229 414.279C844.592 414.916 845.338 415.175 845.895 414.858C846.453 414.54 846.611 413.766 846.248 413.129C845.885 412.492 845.139 412.233 844.582 412.551C844.024 412.868 843.866 413.642 844.229 414.279Z" fill="white" fill-opacity="0.4"/>
</g>
</g>
<g opacity="0.504329" clip-path="url(#clip29_279_1091)">
<path d="M868.041 119.549C880.222 122.007 892.089 114.125 894.547 101.944C897.005 89.763 889.122 77.896 876.942 75.4383C864.761 72.9805 852.894 80.8627 850.436 93.0437C847.978 105.225 855.86 117.092 868.041 119.549Z" fill="white" fill-opacity="0.4"/>
<mask id="mask35_279_1091" style="mask-type:alpha" maskUnits="userSpaceOnUse" x="849" y="74" width="46" height="46">
<path d="M868.041 119.549C880.222 122.007 892.089 114.125 894.547 101.944C897.005 89.763 889.122 77.896 876.942 75.4383C864.761 72.9805 852.894 80.8627 850.436 93.0437C847.978 105.225 855.86 117.092 868.041 119.549Z" fill="black"/>
</mask>
<g mask="url(#mask35_279_1091)">
<path d="M879.853 84.514C879.551 82.3718 871.487 85.2745 864.895 86.5969C861.983 82.8297 853.829 78.345 849.114 82.9025C844.4 87.4601 845.038 98.5555 844.872 103.929C847.958 105.317 855.189 108.918 861.256 104.633C869.583 109.374 878.328 116.188 879.041 112.047C879.754 107.907 871.211 100.071 864.549 96.4313C875.791 93.8029 880.231 87.1916 879.853 84.514Z" fill="black" stroke="black" stroke-width="2.40748"/>
<path d="M857.598 89.7806C857.435 90.589 858.177 91.4206 859.254 91.6381C860.332 91.8556 861.338 91.3766 861.502 90.5681C861.665 89.7597 860.923 88.9281 859.845 88.7106C858.767 88.4931 857.761 88.9721 857.598 89.7806Z" fill="white" fill-opacity="0.4"/>
<path d="M855.629 99.5376C855.466 100.346 856.208 101.178 857.286 101.395C858.364 101.613 859.37 101.134 859.533 100.325C859.696 99.5168 858.954 98.6851 857.876 98.4677C856.799 98.2502 855.792 98.7292 855.629 99.5376Z" fill="white" fill-opacity="0.4"/>
<path d="M853.066 93.7853C852.921 94.5039 853.314 95.1893 853.942 95.3161C854.571 95.443 855.198 94.9633 855.343 94.2447C855.488 93.5261 855.096 92.8408 854.467 92.7139C853.839 92.587 853.211 93.0667 853.066 93.7853Z" fill="white" fill-opacity="0.4"/>
</g>
</g>
<path d="M404.067 181.351C398.383 181.351 392.739 182.315 387.378 184.202V148H354V281.403H387.378V231.377C387.378 226.954 389.137 222.713 392.266 219.586C395.396 216.458 399.641 214.701 404.067 214.701C408.493 214.701 412.738 216.458 415.868 219.586C418.997 222.713 420.756 226.954 420.756 231.377V281.403H454.134V231.377C454.134 218.109 448.859 205.385 439.469 196.003C430.081 186.621 417.346 181.351 404.067 181.351Z" fill="white"/>
<path d="M487.52 181.35C477.618 181.35 467.938 184.284 459.705 189.781C451.471 195.278 445.054 203.091 441.265 212.232C437.475 221.373 436.483 231.432 438.415 241.136C440.347 250.84 445.116 259.754 452.118 266.75C459.12 273.747 468.041 278.511 477.753 280.441C487.465 282.371 497.531 281.381 506.68 277.594C515.829 273.808 523.648 267.396 529.149 259.169C534.651 250.943 537.587 241.27 537.587 231.376C537.587 218.109 532.312 205.384 522.923 196.003C513.534 186.621 500.799 181.35 487.52 181.35ZM487.52 248.052C484.219 248.052 480.993 247.074 478.248 245.242C475.504 243.409 473.365 240.805 472.101 237.758C470.838 234.711 470.508 231.358 471.152 228.123C471.796 224.888 473.385 221.917 475.719 219.585C478.053 217.253 481.027 215.665 484.264 215.022C487.502 214.378 490.857 214.708 493.907 215.97C496.957 217.232 499.563 219.37 501.397 222.112C503.23 224.855 504.209 228.078 504.209 231.376C504.209 235.799 502.451 240.041 499.321 243.167C496.191 246.295 491.946 248.052 487.52 248.052Z" fill="white"/>
<path d="M570.961 181.35C557.682 181.35 544.947 186.621 535.558 196.003C526.169 205.384 520.894 218.109 520.894 231.376V314.753H554.272V278.551C561.145 280.975 568.466 281.87 575.721 281.173C582.977 280.477 589.993 278.206 596.279 274.519C602.565 270.832 607.97 265.818 612.115 259.827C616.261 253.836 619.047 247.014 620.279 239.835C621.512 232.657 621.161 225.296 619.251 218.268C617.341 211.239 613.918 204.712 609.221 199.142C604.524 193.572 598.667 189.095 592.059 186.022C585.45 182.949 578.25 181.354 570.961 181.35ZM570.961 248.052C567.66 248.052 564.433 247.074 561.689 245.242C558.944 243.409 556.805 240.805 555.542 237.758C554.279 234.711 553.948 231.358 554.592 228.123C555.236 224.888 556.826 221.917 559.16 219.585C561.494 217.253 564.467 215.665 567.704 215.022C570.942 214.378 574.298 214.708 577.347 215.97C580.397 217.232 583.003 219.37 584.837 222.112C586.671 224.855 587.65 228.078 587.65 231.376C587.65 235.799 585.891 240.041 582.761 243.167C579.632 246.295 575.387 248.052 570.961 248.052Z" fill="white"/>
<defs>
<clipPath id="clip0_279_1091">
<rect width="45" height="45" fill="white" transform="translate(531.997 122) rotate(180)"/>
</clipPath>
<clipPath id="clip1_279_1091">
<rect width="45" height="45" fill="white" transform="translate(384.499 324) rotate(-121.184)"/>
</clipPath>
<clipPath id="clip2_279_1091">
<rect width="45" height="45" fill="white" transform="translate(230.8 456.802) rotate(-89.7482)"/>
</clipPath>
<clipPath id="clip3_279_1091">
<rect width="45" height="45" fill="white" transform="translate(318.662 316.267) rotate(80.6195)"/>
</clipPath>
<clipPath id="clip4_279_1091">
<rect width="45" height="45" fill="white" transform="translate(590.997 237.185) rotate(146.535)"/>
</clipPath>
<clipPath id="clip5_279_1091">
<rect width="45" height="45" fill="white" transform="translate(413.997 410.345) rotate(140.449)"/>
</clipPath>
<clipPath id="clip6_279_1091">
<rect width="45" height="45" fill="white" transform="translate(511.271 404.354) rotate(65.4084)"/>
</clipPath>
<clipPath id="clip7_279_1091">
<rect width="45" height="45" fill="white" transform="translate(484.997 96.9995) rotate(-10.1413)"/>
</clipPath>
<clipPath id="clip8_279_1091">
<rect width="45" height="45" fill="white" transform="translate(639.997 271) rotate(-79.0997)"/>
</clipPath>
<clipPath id="clip9_279_1091">
<rect width="45" height="45" fill="white" transform="translate(732.299 266.49) rotate(-79.0997)"/>
</clipPath>
<clipPath id="clip10_279_1091">
<rect width="45" height="45" fill="white" transform="translate(469.299 206.49) rotate(-79.0997)"/>
</clipPath>
<clipPath id="clip11_279_1091">
<rect width="45" height="45" fill="white" transform="translate(239.299 94.49) rotate(-79.0997)"/>
</clipPath>
<clipPath id="clip12_279_1091">
<rect width="45" height="45" fill="white" transform="translate(684.997 385) rotate(17.2379)"/>
</clipPath>
<clipPath id="clip13_279_1091">
<rect width="45" height="45" fill="white" transform="translate(870.856 273) rotate(-110.536)"/>
</clipPath>
<clipPath id="clip14_279_1091">
<rect width="45" height="45" fill="white" transform="translate(762.594 321.557) rotate(-40.0579)"/>
</clipPath>
<clipPath id="clip15_279_1091">
<rect width="45" height="45" fill="white" transform="translate(763.422 135.934) rotate(61.3512)"/>
</clipPath>
<clipPath id="clip16_279_1091">
<rect width="45" height="45" fill="white" transform="translate(602.414 93.8708) rotate(-42.5919)"/>
</clipPath>
<clipPath id="clip17_279_1091">
<rect width="45" height="45" fill="white" transform="translate(457.159 336.913) rotate(-64.903)"/>
</clipPath>
<clipPath id="clip18_279_1091">
<rect width="45" height="45" fill="white" transform="translate(531.159 44.9127) rotate(-64.903)"/>
</clipPath>
<clipPath id="clip19_279_1091">
<rect width="45" height="45" fill="white" transform="translate(580.062 345.333) rotate(-25.3523)"/>
</clipPath>
<clipPath id="clip20_279_1091">
<rect width="45" height="45" fill="white" transform="translate(235.478 239.385) rotate(-59.8315)"/>
</clipPath>
<clipPath id="clip21_279_1091">
<rect width="45" height="45" fill="white" transform="translate(395.743 176) rotate(8.61808)"/>
</clipPath>
<clipPath id="clip22_279_1091">
<rect width="45" height="45" fill="white" transform="translate(344.505 107.765) rotate(8.61808)"/>
</clipPath>
<clipPath id="clip23_279_1091">
<rect width="45" height="45" fill="white" transform="translate(0 463.322) rotate(-89.7482)"/>
</clipPath>
<clipPath id="clip24_279_1091">
<rect width="45" height="45" fill="white" transform="translate(87.8623 322.786) rotate(80.6195)"/>
</clipPath>
<clipPath id="clip25_279_1091">
<rect width="45" height="45" fill="white" transform="translate(8.49902 101.01) rotate(-79.0997)"/>
</clipPath>
<clipPath id="clip26_279_1091">
<rect width="45" height="45" fill="white" transform="translate(4.67773 245.905) rotate(-59.8315)"/>
</clipPath>
<clipPath id="clip27_279_1091">
<rect width="45" height="45" fill="white" transform="translate(113.705 114.284) rotate(8.61808)"/>
</clipPath>
<clipPath id="clip28_279_1091">
<rect width="45" height="45" fill="white" transform="translate(869.727 373.626) rotate(60.3369)"/>
</clipPath>
<clipPath id="clip29_279_1091">
<rect width="45" height="45" fill="white" transform="translate(898.997 79.8884) rotate(101.407)"/>
</clipPath>
</defs>
</svg>
