<svg width="22" height="22" viewBox="0 0 22 22" fill="none" xmlns="http://www.w3.org/2000/svg">
<g clip-path="url(#clip0_1_395)">
<path d="M21.6717 4.52561C20.9063 4.86478 20.0841 5.09395 19.2197 5.19753C20.1116 4.66384 20.7789 3.82387 21.097 2.83436C20.259 3.3321 19.3419 3.68246 18.3855 3.8702C17.7423 3.18349 16.8905 2.72833 15.9621 2.57538C15.0338 2.42243 14.0809 2.58026 13.2515 3.02435C12.422 3.46843 11.7624 4.17395 11.375 5.03134C10.9876 5.88874 10.8941 6.85005 11.109 7.76603C9.41104 7.68078 7.74999 7.23945 6.23363 6.47069C4.71728 5.70194 3.37951 4.62293 2.30716 3.3037C1.94049 3.9362 1.72966 4.66953 1.72966 5.45053C1.72925 6.15361 1.90239 6.84592 2.23372 7.46604C2.56504 8.08615 3.04431 8.6149 3.62899 9.00537C2.95091 8.98379 2.28779 8.80057 1.69483 8.47095V8.52595C1.69476 9.51205 2.03586 10.4678 2.66024 11.231C3.28463 11.9943 4.15385 12.518 5.12041 12.7133C4.49138 12.8835 3.83189 12.9086 3.19174 12.7866C3.46445 13.6351 3.99566 14.3771 4.711 14.9086C5.42634 15.4402 6.29 15.7348 7.18108 15.7511C5.66842 16.9386 3.80031 17.5827 1.87724 17.5799C1.53659 17.58 1.19623 17.5601 0.85791 17.5203C2.80993 18.7754 5.08222 19.4415 7.40291 19.4389C15.2587 19.4389 19.5533 12.9324 19.5533 7.28937C19.5533 7.10603 19.5487 6.92087 19.5405 6.73753C20.3758 6.13342 21.0969 5.38535 21.6699 4.52836L21.6717 4.52561Z" fill="#BBBBBB"/>
</g>
<defs>
<clipPath id="clip0_1_395">
<rect width="22" height="22" fill="white" transform="translate(-0.000976562)"/>
</clipPath>
</defs>
</svg>
